<?xml version="1.0" encoding="UTF-8"?>
<svg version="1.1" xmlns="http://www.w3.org/2000/svg" width="2389" height="1080">
<path d="M0 0 C0.9910952 -0.01007584 0.9910952 -0.01007584 2.00221252 -0.02035522 C4.18221608 -0.03932016 6.36191131 -0.04325907 8.54199219 -0.04541016 C10.06410853 -0.05184084 11.58622363 -0.0585694 13.1083374 -0.06558228 C16.29930483 -0.07755248 19.49016405 -0.08126354 22.68115234 -0.08007812 C26.75426252 -0.07987534 30.82667182 -0.10713626 34.89961624 -0.14162254 C38.04479099 -0.16395301 41.18979898 -0.16791374 44.33504486 -0.16685867 C45.83564409 -0.16920698 47.33624846 -0.17798684 48.8367691 -0.19352341 C64.02063351 -0.33597568 64.02063351 -0.33597568 70.33886719 4.29052734 C73.15680719 8.8791093 74.06548187 13.36377726 74.74243164 18.62451172 C74.85721202 19.44869032 74.9719924 20.27286892 75.09025097 21.12202263 C75.4710163 23.87482236 75.83652992 26.62942818 76.20214844 29.38427734 C76.47273977 31.36305312 76.74428923 33.34169808 77.01672363 35.32022095 C77.6008611 39.57758673 78.17825234 43.83579362 78.75039673 48.0947876 C79.65510532 54.82927844 80.57444492 61.56172146 81.49584961 68.29394531 C82.78821113 77.7473811 84.07381746 87.20171243 85.35449219 96.65673828 C88.13275698 117.16508125 90.93874728 137.66962725 93.74931622 158.17356491 C94.68139767 164.97567734 95.60963637 171.77829989 96.53459358 178.58138466 C97.10969707 182.80813177 97.68706392 187.03456767 98.26493835 191.26093674 C98.53317043 193.22655961 98.8004009 195.19231946 99.0665741 197.1582222 C99.42920704 199.83566548 99.79534486 202.51260669 100.16235352 205.18945312 C100.26770574 205.97399117 100.37305796 206.75852921 100.48160267 207.56684113 C100.90044082 210.59957997 101.36810392 213.37823753 102.33886719 216.29052734 C102.99886719 216.29052734 103.65886719 216.29052734 104.33886719 216.29052734 C106.57235285 204.72855821 108.54634836 193.13911452 110.40161133 181.51098633 C110.69417937 179.68746407 110.98694546 177.86397358 111.27989197 176.04051208 C111.90467371 172.14931102 112.52821975 168.25791479 113.15080452 164.36636162 C114.13606319 158.20882201 115.12502382 152.0518804 116.11460876 145.89503479 C118.92602648 128.39989931 121.73261796 110.90399159 124.53540039 93.4074707 C126.087706 83.7173265 127.64306802 74.02767777 129.20171255 64.3385511 C130.18561367 58.22107935 131.16570463 52.10301332 132.14295018 45.98447502 C132.75108896 42.18263118 133.3627872 38.38136643 133.97548866 34.58025551 C134.25834808 32.82089751 134.53974941 31.06130436 134.81956863 29.30146027 C135.20231646 26.89562829 135.5903325 24.49070186 135.97962952 22.08592224 C136.08848592 21.39350966 136.19734233 20.70109709 136.30949742 19.98770231 C137.51390525 12.62370132 138.43688029 7.20884976 144.33886719 2.29052734 C147.49944334 0.36490802 149.88282386 0.03440916 153.56298828 0.01586914 C155.12513565 0.00157112 155.12513565 0.00157112 156.71884155 -0.01301575 C158.3986058 -0.01164864 158.3986058 -0.01164864 160.11230469 -0.01025391 C161.84705551 -0.01668159 161.84705551 -0.01668159 163.61685181 -0.02323914 C166.06292059 -0.02898137 168.50900645 -0.02948349 170.95507812 -0.02514648 C174.69268035 -0.02199055 178.42948805 -0.04543422 182.16699219 -0.07080078 C184.54459536 -0.07307421 186.92220065 -0.07377707 189.29980469 -0.07275391 C190.41559906 -0.08196365 191.53139343 -0.0911734 192.68099976 -0.10066223 C199.49631374 -0.06014519 203.83048214 0.6216036 209.36680889 4.83323765 C212.21482238 8.38201418 212.63281246 11.91718841 213.38935852 16.3344574 C213.55366436 17.22291428 213.71797021 18.11137116 213.88725501 19.02675098 C214.38981004 21.77840921 214.86790845 24.5333006 215.33886719 27.29052734 C215.47916029 28.09874789 215.61945339 28.90696845 215.76399779 29.73968053 C216.73261673 35.34842656 217.63677218 40.96664026 218.53100586 46.58764648 C218.82520075 48.4182719 219.11974183 50.24884171 219.41459656 52.07936096 C220.04097045 55.97251525 220.6650001 59.86603482 221.28709984 63.75987434 C222.2708224 69.91685262 223.26021142 76.07291257 224.25032043 82.22886658 C225.99099823 93.05585954 227.72710876 103.8835809 229.46209717 114.71148682 C232.0830769 131.06878289 234.70714474 147.4255824 237.33647138 163.7815389 C238.32045117 169.90363352 239.30179147 176.02614368 240.2810539 182.14899457 C240.88812241 185.94171261 241.49723536 189.73410027 242.10688972 193.52640343 C242.38956254 195.28754247 242.67136054 197.04882217 242.95223236 198.81024933 C243.33472063 201.20823205 243.72027863 203.60570143 244.10661316 206.00306702 C244.21770029 206.70440248 244.32878742 207.40573794 244.44324082 208.128326 C244.90198883 210.95752049 245.43018136 213.56446987 246.33886719 216.29052734 C246.99886719 216.29052734 247.65886719 216.29052734 248.33886719 216.29052734 C251.57933617 196.026528 254.38608326 175.71068725 257.14535904 155.37678146 C257.92467755 149.634066 258.70798809 143.89189903 259.49191284 138.14981079 C261.71727882 121.8451467 263.93746378 105.53977945 266.15380859 89.23388672 C267.38479183 80.17766762 268.61897464 71.12189021 269.85658062 62.06657374 C270.63575123 56.36410955 271.41095405 50.66112488 272.18314767 44.95771194 C272.6633304 41.41809002 273.14723929 37.87898492 273.6321907 34.3400135 C273.85545373 32.70520678 274.07719845 31.07019184 274.29727936 29.43495369 C274.59877189 27.19647727 274.90579918 24.9588246 275.21414185 22.72128296 C275.38408724 21.47191641 275.55403263 20.22254986 275.72912788 18.93532372 C277.75782649 6.80851267 277.75782649 6.80851267 283.33886719 2.29052734 C286.88029976 0.02733494 289.87653417 0.03183901 294.03173828 0.01586914 C295.02765236 0.00820274 295.02765236 0.00820274 296.04368591 0.00038147 C298.23331783 -0.01349106 300.4226341 -0.01255936 302.61230469 -0.01025391 C304.1392122 -0.01414259 305.66611864 -0.01847761 307.19302368 -0.02323914 C310.39239 -0.03069664 313.59164597 -0.03041384 316.79101562 -0.02514648 C320.88214625 -0.01935729 324.97282334 -0.03627146 329.06387901 -0.05949116 C332.2175458 -0.07425626 335.37110412 -0.07509636 338.52479935 -0.07198143 C340.03261843 -0.07249341 341.54044378 -0.07770795 343.04822922 -0.08779335 C345.16151731 -0.10019267 347.2739319 -0.09334586 349.38720703 -0.08178711 C350.58759613 -0.08241653 351.78798523 -0.08304596 353.02474976 -0.08369446 C356.75630344 0.3376632 359.15052201 1.33119317 362.33886719 3.29052734 C366.57146473 9.49833708 365.60460483 15.24250621 364.35040283 22.26203918 C363.88611569 24.69184796 363.41461401 27.12028473 362.9375 29.54760742 C362.67639365 30.90074053 362.41586552 32.25398531 362.15586472 33.60733128 C361.44259295 37.31126356 360.72127713 41.01358998 359.99867249 44.71571112 C359.22261611 48.69956114 358.45426531 52.68489732 357.68505859 56.67007446 C356.35618865 63.54947395 355.02277869 70.42798022 353.68615723 77.30587769 C351.58120513 88.13761414 349.48406609 98.97085437 347.38867188 109.80444336 C346.85502959 112.56329531 346.32138203 115.32214625 345.78773379 118.08099705 C345.42945133 119.93327065 345.07118278 121.78554694 344.71292806 123.63782591 C343.62436429 129.26567836 342.53501915 134.89337895 341.44511247 140.52097148 C336.47566708 166.1813222 331.54367395 191.84859894 326.64527225 217.52260327 C325.83109116 221.78919908 325.01619241 226.0556578 324.20135498 230.3221283 C323.56453487 233.65688317 322.92776034 236.99164675 322.29101562 240.32641602 C322.13574953 241.13957681 321.98048343 241.9527376 321.82051229 242.79053962 C319.98191193 252.42051529 318.14643419 262.05107662 316.31516123 271.68244839 C315.17064836 277.70030266 314.02236338 283.71742972 312.87120581 289.73401642 C312.21061041 293.18745581 311.55179202 296.64120941 310.89779663 300.0959053 C310.18927177 303.83415952 309.47431507 307.57112926 308.7578125 311.30786133 C308.5554108 312.38453977 308.35300911 313.4612182 308.14447403 314.57052326 C304.65928894 332.62113525 304.65928894 332.62113525 300.33886719 336.35302734 C295.77015228 339.30365572 292.10955495 339.44346403 286.84155273 339.45166016 C286.08022034 339.45662506 285.31888794 339.46158997 284.53448486 339.46670532 C282.0148427 339.48131452 279.49526351 339.48812714 276.97558594 339.49365234 C275.22304788 339.49940516 273.47050983 339.50516288 271.7179718 339.51092529 C268.04187731 339.52143198 264.36580466 339.52727671 260.68969727 339.53076172 C255.98539854 339.5362434 251.2813897 339.5602658 246.57718182 339.58873367 C242.95601058 339.60738301 239.33490882 339.61256689 235.71369362 339.6140976 C233.97978952 339.61711986 232.24588652 339.62513399 230.51202965 339.63828278 C228.08258572 339.65539026 225.65384542 339.6534517 223.22436523 339.64697266 C222.51194168 339.65618744 221.79951813 339.66540222 221.06550598 339.67489624 C216.40806187 339.6361035 213.24788027 338.8286503 209.33886719 336.29052734 C205.90896844 332.80050499 204.6025103 329.7361551 203.43920898 325.02368164 C203.19897648 324.06428822 203.19897648 324.06428822 202.9538908 323.08551311 C202.39666113 320.82462627 201.8652261 318.55879786 201.33886719 316.29052734 C201.1355994 315.4190015 200.93233162 314.54747566 200.72290421 313.64953995 C199.01772965 306.29572289 197.37416034 298.92846097 195.73339844 291.56005859 C195.20370593 289.1920504 194.67372762 286.82410613 194.14347839 284.45622253 C192.75866194 278.26893324 191.37740185 272.08085569 189.99700928 265.89257812 C188.31333171 258.34756383 186.62571491 250.80342985 184.93837261 243.25923443 C183.62732776 237.39735159 182.31696839 231.53531863 181.00874329 225.67280579 C180.76903809 224.59942459 180.52933289 223.5260434 180.28236389 222.4201355 C179.83514785 220.41749415 179.38831075 218.41476812 178.94192505 216.41194153 C178.64562447 215.08573792 178.64562447 215.08573792 178.34333801 213.73274231 C178.17247083 212.96685697 178.00160364 212.20097162 177.82555866 211.41187763 C177.35579222 209.36429878 176.85574176 207.32667329 176.33886719 205.29052734 C175.67886719 205.29052734 175.01886719 205.29052734 174.33886719 205.29052734 C170.3947206 221.93826362 166.57551938 238.61162941 162.84690857 255.30889893 C162.16381362 258.36725845 161.4796 261.42536565 160.79504395 264.48339844 C160.33177695 266.55322038 159.86852017 268.62304461 159.40527344 270.69287109 C159.17447838 271.72408081 158.94368332 272.75529053 158.70589447 273.81774902 C157.51791214 279.12834938 156.33285863 284.43957896 155.15283203 289.75195312 C153.99093483 294.98166967 152.82141214 300.20962908 151.6467514 305.43649292 C151.2053901 307.40698729 150.76683174 309.37811178 150.3312149 311.34988403 C149.72675121 314.08438253 149.1125655 316.8165273 148.49609375 319.54833984 C148.2342202 320.74971336 148.2342202 320.74971336 147.96705627 321.97535706 C146.38174448 328.91643296 144.46201263 334.15740417 138.33886719 338.29052734 C134.78024591 339.47673444 131.54535302 339.44589767 127.84155273 339.45166016 C127.08022034 339.45662506 126.31888794 339.46158997 125.53448486 339.46670532 C123.0148427 339.48131452 120.49526351 339.48812714 117.97558594 339.49365234 C116.22304788 339.49940516 114.47050983 339.50516288 112.7179718 339.51092529 C109.04187731 339.52143198 105.36580466 339.52727671 101.68969727 339.53076172 C96.98539854 339.5362434 92.2813897 339.5602658 87.57718182 339.58873367 C83.95601058 339.60738301 80.33490882 339.61256689 76.71369362 339.6140976 C74.97978952 339.61711986 73.24588652 339.62513399 71.51202965 339.63828278 C69.08258572 339.65539026 66.65384542 339.6534517 64.22436523 339.64697266 C63.51194168 339.65618744 62.79951813 339.66540222 62.06550598 339.67489624 C56.36101141 339.62738241 52.41105879 338.12589705 48.15136719 334.35302734 C43.02184047 325.685896 42.22450665 313.99007132 40.36572266 304.20214844 C40.08053699 302.71418115 39.79505121 301.22627136 39.50929356 299.73841381 C38.73393362 295.69685092 37.96272238 291.65450622 37.19220424 287.61201787 C36.36466179 283.2746241 35.53306105 278.93800838 34.70191956 274.6013031 C33.09207655 266.19826828 31.48565282 257.79458364 29.88056749 249.39063889 C26.90318421 233.80207952 23.92002304 218.21462447 20.93724757 202.62709612 C19.99281035 197.69157723 19.04854332 192.75602591 18.10465431 187.82040215 C13.2695127 162.53808373 8.40863844 137.26096907 3.50547791 111.99175262 C2.60624144 107.35694824 1.7083918 102.72187599 0.81091309 98.08673096 C0.52071287 96.58810927 0.23051232 95.08948765 -0.05968857 93.59086609 C-0.48613807 91.3886012 -0.91257039 89.18633299 -1.33894014 86.98405266 C-2.97387639 78.53992069 -4.61381481 70.09679561 -6.26185054 61.6552102 C-7.40018802 55.82192327 -8.53005048 49.9870156 -9.65678596 44.15147591 C-10.11341878 41.7943768 -10.57297229 39.43784126 -11.03573418 37.08193779 C-11.66147916 33.89484532 -12.2769263 30.70592835 -12.88989258 27.51635742 C-13.07189272 26.60294271 -13.25389286 25.68952801 -13.44140816 24.74843407 C-16.04666576 11.01210993 -16.04666576 11.01210993 -12.91113281 4.85302734 C-8.9652554 0.35911141 -5.88937712 0.03764213 0 0 Z " fill="#00FFA1" transform="translate(1584.6611328125,352.70947265625)"/>
<path d="M0 0 C0.7878186 -0.00686325 1.57563721 -0.0137265 2.3873291 -0.02079773 C4.97862023 -0.03902339 7.56930336 -0.03523389 10.16064453 -0.02954102 C11.97136633 -0.03410534 13.78208639 -0.03941167 15.59280396 -0.04542542 C19.38388108 -0.05434857 23.17474748 -0.05194304 26.96582031 -0.04199219 C31.81010946 -0.03051235 36.65366859 -0.0507028 41.49786186 -0.07990932 C45.2366697 -0.09830918 48.97530388 -0.09797119 52.71414566 -0.0922718 C54.49942167 -0.09211901 56.28470976 -0.09812896 58.06994247 -0.11056328 C60.57312728 -0.12554091 63.07498016 -0.11474718 65.578125 -0.09765625 C66.67098312 -0.1121582 66.67098312 -0.1121582 67.78591919 -0.12695312 C73.22504851 -0.04968872 77.37249292 1.39682154 81.91845703 4.40405273 C83.65489197 6.21632385 83.65489197 6.21632385 84.67211914 8.0703125 C85.05842499 8.76931671 85.44473083 9.46832092 85.84274292 10.18850708 C87.68406977 13.98091219 89.31957254 17.82013717 90.85986328 21.74389648 C91.21978363 22.64172348 91.57970398 23.53955048 91.95053101 24.46458435 C92.72721292 26.40446811 93.50041911 28.34574641 94.27047729 30.28826904 C95.9362697 34.49002198 97.61914697 38.68487152 99.3006134 42.88037109 C100.18203626 45.08036913 101.06254796 47.28073242 101.94218445 49.48144531 C106.52261827 60.93753819 111.1850925 72.35960263 115.85595703 83.77905273 C116.68182943 85.80024908 117.50759412 87.82148943 118.33325195 89.84277344 C120.00202348 93.92782392 121.67121246 98.01270337 123.34082031 102.09741211 C127.38992858 112.00380269 131.43684629 121.91108741 135.48245239 131.81890869 C136.75353711 134.93130426 138.025299 138.04342247 139.29711914 141.15551758 C139.69283615 142.12490265 140.08855316 143.09428772 140.4962616 144.0930481 C141.26058814 145.96389478 142.02649763 147.83409569 142.79414368 149.70358276 C144.4732665 153.80310022 146.12293624 157.90679882 147.67724609 162.05541992 C147.94441437 162.75855316 148.21158264 163.4616864 148.48684692 164.18612671 C149.18105142 166.02463177 149.8593258 167.86913084 150.53613281 169.71411133 C152.08488949 172.7279229 152.92781342 173.10396575 155.91845703 174.40405273 C155.91569165 173.57652245 155.91292627 172.74899216 155.9100771 171.89638519 C155.84378537 151.74828548 155.79416091 131.6002046 155.76302052 111.45201874 C155.74756047 101.70845113 155.72648741 91.96495638 155.69213867 82.22143555 C155.66220994 73.72765634 155.64287576 65.23392991 155.63619155 56.74009943 C155.63228518 52.24387738 155.62312261 47.7478063 155.60126686 43.25163269 C155.58084683 39.01634845 155.57463435 34.78127683 155.57913399 30.54594803 C155.57831125 28.99479134 155.57237848 27.44362727 155.56084061 25.89251328 C155.4567413 11.17090151 155.4567413 11.17090151 158.91845703 4.40405273 C162.90141039 0.54556667 166.76223766 0.27535942 172.13061523 0.24291992 C173.41237137 0.23331238 174.6941275 0.22370483 176.01472473 0.21380615 C177.41622744 0.20895774 178.81773221 0.20467901 180.21923828 0.20092773 C181.65789288 0.19517338 183.09654746 0.18941568 184.53520203 0.18365479 C187.55219886 0.17315235 190.56916911 0.16730493 193.58618164 0.16381836 C197.4430302 0.1583393 201.29952472 0.13432106 205.1562624 0.10584641 C208.12891144 0.08717656 211.10147599 0.0820121 214.0741787 0.08048248 C215.49548462 0.07746453 216.91678936 0.069465 218.33803749 0.0562973 C220.33132509 0.03914998 222.32475927 0.04297437 224.31811523 0.04760742 C225.45046097 0.04396179 226.5828067 0.04031616 227.74946594 0.03656006 C231.46724894 0.4676935 233.77525251 1.37627697 236.91845703 3.40405273 C239.57252416 7.03811638 240.293752 9.58151341 240.29598045 14.04973602 C240.3038037 15.18174454 240.31162694 16.31375306 240.31968725 17.48006487 C240.31299508 18.71886636 240.30630292 19.95766786 240.29940796 21.23400879 C240.30408793 22.5537405 240.3087679 23.8734722 240.31358969 25.23319578 C240.3261223 28.8950321 240.31991913 32.55663409 240.31063104 36.21847129 C240.30385011 40.16808908 240.31431702 44.11766625 240.3225708 48.067276 C240.33592056 55.80403296 240.33302487 63.54070268 240.32433288 71.27746308 C240.31756162 77.56449419 240.31663719 83.85150083 240.31990433 90.13853455 C240.32036403 91.03285516 240.32082373 91.92717578 240.32129735 92.84859702 C240.32225652 94.6653117 240.32322916 96.48202638 240.32421513 98.29874104 C240.33277266 115.33975112 240.32292919 132.38071282 240.30681403 149.42171496 C240.29341052 164.04817601 240.29573851 178.67456563 240.30957031 193.30102539 C240.32561971 210.28046803 240.33194865 227.25986825 240.32273352 244.23931742 C240.32177786 246.04940191 240.32083475 247.85948641 240.31990433 249.66957092 C240.3194415 250.56020004 240.31897867 251.45082916 240.31850182 252.36844704 C240.31591001 258.64895693 240.32028705 264.92943995 240.32734299 271.20994568 C240.33575107 278.86231623 240.33349244 286.51459445 240.31750076 294.1669544 C240.30960869 298.07237415 240.30654228 301.97763988 240.31644821 305.88305855 C240.32701647 310.11353909 240.31440985 314.34362966 240.29940796 318.57409668 C240.30610012 319.81289817 240.31279229 321.05169967 240.31968725 322.3280406 C240.31186401 323.46004912 240.30404076 324.59205764 240.29598045 325.75836945 C240.29524987 327.223252 240.29524987 327.223252 240.29450452 328.71772814 C239.84480363 331.93020152 238.8183505 333.79369602 236.91845703 336.40405273 C232.34073287 339.45412414 228.19617378 339.84103589 222.83691406 339.80810547 C222.04909546 339.81496872 221.26127686 339.82183197 220.44958496 339.8289032 C217.85829383 339.84712886 215.2676107 339.84333936 212.67626953 339.83764648 C210.86554773 339.84221081 209.05482767 339.84751713 207.24411011 339.85353088 C203.45303298 339.86245404 199.66216659 339.86004851 195.87109375 339.85009766 C191.0268046 339.83861782 186.18324547 339.85880827 181.3390522 339.88801479 C177.60024437 339.90641465 173.86161018 339.90607666 170.1227684 339.90037727 C168.33749239 339.90022447 166.5522043 339.90623443 164.76697159 339.91866875 C162.26378678 339.93364638 159.7619339 339.92285265 157.25878906 339.90576172 C156.53021698 339.91542969 155.8016449 339.92509766 155.05099487 339.93505859 C149.61405952 339.85782535 145.45927392 338.41752434 140.91845703 335.40405273 C139.16664124 333.55332947 139.16664124 333.55332947 138.13745117 331.66943359 C137.75130646 330.97083221 137.36516174 330.27223083 136.96731567 329.55245972 C135.30008486 326.13742343 133.79967559 322.69661954 132.41455078 319.15795898 C132.09911316 318.37133881 131.78367554 317.58471863 131.4586792 316.77426147 C130.77624556 315.06999863 130.09728839 313.36434036 129.42147827 311.65744019 C127.94473149 307.92803599 126.45069887 304.20562269 124.95820618 300.48249817 C124.16408112 298.50075285 123.37087412 296.51863943 122.57853699 294.53617859 C118.55271705 284.46679165 114.45728225 274.42626075 110.35220337 264.38897705 C109.10086258 261.32909535 107.85066867 258.26874752 106.60083008 255.20825195 C103.592645 247.84233537 100.58291856 240.47704892 97.57305908 233.11181641 C94.86883806 226.49441136 92.16520087 219.87676837 89.46231079 213.25881958 C88.21414541 210.20339482 86.96513087 207.14831822 85.71606445 204.09326172 C85.32509079 203.13593643 84.93411713 202.17861115 84.53129578 201.192276 C83.76743961 199.32233945 83.00258222 197.45281153 82.23664856 195.58372498 C80.34003198 190.94347199 78.47855381 186.29293493 76.67041016 181.61743164 C76.30953308 180.69130569 75.94865601 179.76517975 75.57684326 178.81098938 C74.89484356 177.05568436 74.22061191 175.29733443 73.55548096 173.53556824 C73.2521283 172.7571608 72.94877563 171.97875336 72.63623047 171.17675781 C72.37565857 170.493741 72.11508667 169.81072418 71.84661865 169.10700989 C70.89983185 167.055713 70.89983185 167.055713 67.91845703 165.40405273 C67.91606868 166.23158302 67.91368032 167.05911331 67.9112196 167.91172028 C67.8520488 188.05992559 67.77648533 208.20801149 67.68274212 228.35608673 C67.63780244 238.09960345 67.59838353 247.84308377 67.57202148 257.58666992 C67.54902664 266.08051759 67.51561194 274.5742499 67.46975547 283.06800604 C67.44584334 287.56417896 67.42710139 292.06023775 67.42084312 296.55647278 C67.41478318 300.79183437 67.39475054 305.02690404 67.36418152 309.26215744 C67.35541585 310.81328172 67.35167566 312.36444416 67.35344887 313.91559219 C67.36496479 328.64274334 67.36496479 328.64274334 63.91845703 335.40405273 C59.93091665 339.26698248 56.06464413 339.53279724 50.69042969 339.56518555 C49.40544586 339.57479309 48.12046204 339.58440063 46.79653931 339.59429932 C45.39186785 339.59914721 43.98719434 339.60342606 42.58251953 339.60717773 C41.1414693 339.61293151 39.70041909 339.61868922 38.2593689 339.62445068 C35.2381759 339.63495202 32.21700945 339.6408004 29.19580078 339.64428711 C25.32988635 339.64977111 21.46432425 339.6738004 17.59852028 339.70225906 C14.62162255 339.7209084 11.64480933 339.72609225 8.66785812 339.72762299 C7.24293465 339.73064471 5.8180125 339.73865706 4.39314651 339.75180817 C2.39726003 339.76891523 0.40122784 339.76513687 -1.59472656 339.76049805 C-2.72929291 339.76414368 -3.86385925 339.76778931 -5.0328064 339.77154541 C-9.6458634 339.21549059 -12.05719242 337.49803321 -15.19679314 334.14501905 C-17.35530707 331.00592128 -17.58170071 329.52063714 -17.58211422 325.75836945 C-17.59192851 324.62636093 -17.6017428 323.49435241 -17.61185449 322.3280406 C-17.60224949 321.08923911 -17.59264448 319.85043761 -17.58274841 318.57409668 C-17.58828281 317.25436497 -17.59381721 315.93463326 -17.59951931 314.57490969 C-17.61428875 310.91300348 -17.60408421 307.25152663 -17.5897826 303.58963418 C-17.57868502 299.64001099 -17.59061136 295.69044863 -17.59962463 291.74082947 C-17.61356742 284.0040435 -17.60599329 276.2674206 -17.59094905 268.53064239 C-17.57410043 259.52353978 -17.57729776 250.51647792 -17.58104313 241.50936443 C-17.58692362 225.43988509 -17.57274276 209.37048409 -17.5480957 193.30102539 C-17.52417438 177.70301375 -17.5170912 162.10510677 -17.52758789 146.50708008 C-17.53899371 129.52763306 -17.54093132 112.54823447 -17.52648979 95.56878805 C-17.52496393 93.75870355 -17.52344358 91.94861905 -17.52192879 90.13853455 C-17.52117097 89.24790543 -17.52041316 88.35727631 -17.51963238 87.43965843 C-17.51488695 81.15915158 -17.51674282 74.87866632 -17.52099419 68.59815979 C-17.52591769 60.94578298 -17.51995065 53.29350519 -17.50009989 45.64115107 C-17.49021904 41.73573543 -17.48513127 37.83047064 -17.4929924 33.92504692 C-17.50133371 29.69455748 -17.48648662 25.46447111 -17.46922302 21.23400879 C-17.47523307 19.9952073 -17.48124311 18.7564058 -17.48743528 17.48006487 C-17.47899534 16.34805635 -17.4705554 15.21604783 -17.4618597 14.04973602 C-17.46083057 13.07314765 -17.45980144 12.09655929 -17.45874113 11.09037733 C-17.00775843 7.87857507 -15.98104328 6.01414643 -14.08154297 3.40405273 C-9.50381881 0.35398133 -5.35925972 -0.03293042 0 0 Z " fill="#00FFA1" transform="translate(1019.08154296875,352.595947265625)"/>
<path d="M0 0 C1.58424273 1.51931475 3.14717442 3.06117793 4.6875 4.625 C5.46867187 5.40746094 6.24984375 6.18992187 7.0546875 6.99609375 C38.86823495 40.46994418 33.00814177 95.72724438 32.98908257 138.18818831 C32.98800017 142.97300714 32.99292673 147.75781306 32.997688 152.54262906 C33.00869888 163.82261903 33.00926451 175.10257565 33.00317383 186.38256836 C32.99710174 197.99256538 33.00954587 209.6024422 33.0307439 221.21241874 C33.04835845 231.2308832 33.05436262 241.24930933 33.05110615 251.26778871 C33.04929748 257.23074119 33.05189068 263.19360731 33.06582069 269.15654564 C33.07839675 274.7456714 33.07645703 280.33460798 33.06340981 285.92373085 C33.06104637 287.96953521 33.06377034 290.01535293 33.07203293 292.06114197 C33.08251871 294.85931379 33.07438593 297.65685236 33.0617218 300.45500183 C33.06909609 301.25791363 33.07647037 302.06082544 33.08406812 302.8880679 C33.02152343 309.48429138 31.88546865 315.87753919 27.6875 321.125 C24.06020878 323.84546841 20.86604098 323.75960113 16.4753418 323.78613281 C15.19358566 323.79574036 13.91182953 323.8053479 12.5912323 323.81524658 C11.1897296 323.820095 9.78822482 323.82437372 8.38671875 323.828125 C6.94806416 323.83387936 5.50940957 323.83963706 4.070755 323.84539795 C1.05375817 323.85590039 -1.96321207 323.8617478 -4.98022461 323.86523438 C-8.83707317 323.87071343 -12.69356769 323.89473168 -16.55030537 323.92320633 C-19.5229544 323.94187617 -22.49551896 323.94704064 -25.46822166 323.94857025 C-26.88952759 323.95158821 -28.31083233 323.95958773 -29.73208046 323.97275543 C-31.72536806 323.98990275 -33.71880223 323.98607837 -35.7121582 323.98144531 C-36.84450394 323.98509094 -37.97684967 323.98873657 -39.14350891 323.99249268 C-43.66605341 323.46803491 -47.06167374 321.98227956 -50.15991211 318.62036133 C-51.92790413 314.02567925 -51.75335238 309.58165897 -51.75390625 304.69921875 C-51.77371803 303.10688164 -51.77371803 303.10688164 -51.79393005 301.4823761 C-51.83477737 298.09239091 -51.85647182 294.7026753 -51.875 291.3125 C-51.89885785 287.93312024 -51.92712366 284.55399176 -51.96678162 281.17475891 C-51.99095384 279.07457712 -52.00596219 276.97426337 -52.01039124 274.87394714 C-52.05914352 264.95246692 -52.05914352 264.95246692 -56.1875 256.1875 C-59.66227548 253.63251803 -62.93984156 253.49810508 -67.16943359 253.46386719 C-68.13078217 253.45425964 -69.09213074 253.4446521 -70.08261108 253.43475342 C-71.1149588 253.43050354 -72.14730652 253.42625366 -73.2109375 253.421875 C-74.27865387 253.41617493 -75.34637024 253.41047485 -76.44644165 253.40460205 C-78.70419323 253.39516134 -80.96195854 253.38862176 -83.21972656 253.38476562 C-86.6675627 253.37505615 -90.11480361 253.3440218 -93.5625 253.3125 C-95.75780897 253.30596998 -97.95312219 253.3007195 -100.1484375 253.296875 C-101.17673676 253.2845282 -102.20503601 253.2721814 -103.26449585 253.25946045 C-108.61500345 253.27605462 -112.85933078 253.30804831 -117.3125 256.625 C-121.33377424 261.95361301 -120.73643705 268.0244545 -120.71875 274.41015625 C-120.73500427 276.11092567 -120.73500427 276.11092567 -120.75158691 277.84605408 C-120.79738193 282.68419329 -120.80893734 287.52227853 -120.82373047 292.3605957 C-120.83941804 295.89814364 -120.87241435 299.43524291 -120.90625 302.97265625 C-120.90322876 304.06546402 -120.90020752 305.15827179 -120.89709473 306.28419495 C-120.96096977 312.73630551 -121.53959155 316.38994014 -125.8125 321.375 C-129.04547272 324.06914393 -132.51672037 323.76191405 -136.5246582 323.78613281 C-137.80641434 323.79574036 -139.08817047 323.8053479 -140.4087677 323.81524658 C-141.8102704 323.820095 -143.21177518 323.82437372 -144.61328125 323.828125 C-146.05193584 323.83387936 -147.49059043 323.83963706 -148.929245 323.84539795 C-151.94624183 323.85590039 -154.96321207 323.8617478 -157.98022461 323.86523438 C-161.83707317 323.87071343 -165.69356769 323.89473168 -169.55030537 323.92320633 C-172.5229544 323.94187617 -175.49551896 323.94704064 -178.46822166 323.94857025 C-179.88952759 323.95158821 -181.31083233 323.95958773 -182.73208046 323.97275543 C-184.72536806 323.98990275 -186.71880223 323.98607837 -188.7121582 323.98144531 C-189.84450394 323.98509094 -190.97684967 323.98873657 -192.14350891 323.99249268 C-195.9721812 323.54849994 -198.13701928 322.83830957 -201.3125 320.625 C-205.28714655 315.01063736 -205.88624947 309.65203042 -205.80697632 302.94523621 C-205.81180515 302.00033886 -205.81663398 301.05544151 -205.82160914 300.08191091 C-205.83283697 296.93086803 -205.8155926 293.78064451 -205.79833984 290.62963867 C-205.80048694 288.36374696 -205.80436646 286.09785632 -205.80984497 283.83197021 C-205.81953096 277.68456136 -205.80423902 271.53744342 -205.78393888 265.39006972 C-205.76633423 258.9407395 -205.76989379 252.49141783 -205.7706604 246.04206848 C-205.76878743 235.20027209 -205.75154181 224.35860369 -205.72412109 213.5168457 C-205.69602042 202.40028858 -205.6817766 191.28382949 -205.68310547 180.16723633 C-205.68318538 179.48411081 -205.68326529 178.80098529 -205.68334763 178.09715899 C-205.68342834 177.41513843 -205.68350905 176.73311787 -205.6835922 176.03043002 C-205.68504958 162.68989213 -205.67102241 149.34940573 -205.65269899 136.00887895 C-205.64845741 132.18591712 -205.64701946 128.36296296 -205.64622116 124.53999901 C-205.64419378 118.49969961 -205.63183545 112.45950117 -205.61188889 106.41923523 C-205.60610594 104.21639946 -205.60357432 102.01355205 -205.60474396 99.810709 C-205.61014602 83.42510969 -205.11119241 67.00587334 -201.5625 50.9375 C-201.39258545 50.16188721 -201.2226709 49.38627441 -201.04760742 48.5871582 C-195.68509163 25.330599 -183.68743318 5.78084264 -163.3125 -7.375 C-119.72671849 -33.33057775 -39.71481453 -34.69691809 0 0 Z M-116.125 76.125 C-122.50808284 84.74605344 -121.76116808 97.0326149 -121.7109375 107.2421875 C-121.71296429 108.71282088 -121.71588072 110.18345327 -121.71963501 111.65408325 C-121.72402166 114.71154505 -121.71774141 117.76874129 -121.70361328 120.82617188 C-121.68643161 124.73326403 -121.69644176 128.6397418 -121.71433067 132.54681206 C-121.7251906 135.57352299 -121.72171367 138.60008897 -121.7139473 141.62680435 C-121.7119561 143.06762898 -121.71436632 144.50846706 -121.72138596 145.94927597 C-121.72904636 147.96081014 -121.71529087 149.972391 -121.70068359 151.98388672 C-121.69829681 153.12461639 -121.69591003 154.26534607 -121.69345093 155.44064331 C-121.15389453 159.95077812 -119.69759314 163.36975934 -116.3125 166.4375 C-113.01212963 168.39709491 -110.32514614 168.75580797 -106.5690918 168.78613281 C-105.12695564 168.80054413 -105.12695564 168.80054413 -103.65568542 168.81524658 C-102.09942192 168.8216214 -102.09942192 168.8216214 -100.51171875 168.828125 C-98.90802177 168.83667511 -98.90802177 168.83667511 -97.27192688 168.84539795 C-95.00819895 168.85484816 -92.74445727 168.86138201 -90.48071289 168.86523438 C-87.02400592 168.87493265 -83.56789535 168.90595343 -80.11132812 168.9375 C-77.91146186 168.94403091 -75.71159135 168.94928104 -73.51171875 168.953125 C-72.48028244 168.9654718 -71.44884613 168.9778186 -70.38615417 168.99053955 C-63.61362352 168.96960491 -58.9823228 168.2948228 -54 163.3125 C-50.19152571 157.24715205 -51.1670461 149.61205442 -51.1796875 142.68359375 C-51.17825241 140.94469627 -51.17825241 140.94469627 -51.17678833 139.17066956 C-51.17610878 136.718841 -51.17794737 134.26701063 -51.18212891 131.81518555 C-51.18744625 128.10005542 -51.18219387 124.38504808 -51.17578125 120.66992188 C-51.17644273 118.27864557 -51.17772535 115.88736934 -51.1796875 113.49609375 C-51.17665115 111.85319618 -51.17665115 111.85319618 -51.17355347 110.17710876 C-50.98477035 92.2999961 -50.98477035 92.2999961 -57 75.8125 C-66.22882255 67.08253273 -79.06819807 67.19689141 -91.0234375 67.4375 C-100.56028299 67.76936065 -108.8690423 69.67525983 -116.125 76.125 Z " fill="#00FFA1" transform="translate(2177.3125,368.375)"/>
<path d="M0 0 C1.93214153 1.84329653 3.80912869 3.7252532 5.6875 5.625 C6.50089844 6.42808594 7.31429688 7.23117187 8.15234375 8.05859375 C14.34459723 14.5048884 18.6827888 21.70876082 22.6875 29.625 C23.50734375 31.24341797 23.50734375 31.24341797 24.34375 32.89453125 C32.43444153 50.29364595 34.8352619 68.86078241 34.84863281 87.84326172 C34.85326818 89.38172014 34.85829379 90.92017744 34.86367798 92.45863342 C34.87673996 96.62245822 34.88323547 100.78626694 34.88768864 104.950109 C34.8906311 107.56009603 34.89473818 110.17007878 34.89919281 112.78006363 C34.91285514 120.97065104 34.9225264 129.16122854 34.9263947 137.35182655 C34.93086409 146.76001401 34.94836516 156.16805537 34.9773953 165.57619846 C34.99913085 172.8776452 35.00910537 180.17905121 35.01043582 187.4805299 C35.01147595 191.82715373 35.01721176 196.17364001 35.03525543 200.52022934 C35.16807419 234.47258141 32.59499185 266.07321986 10.6875 293.625 C9.5428125 295.171875 9.5428125 295.171875 8.375 296.75 C-13.62539307 320.28530421 -45.81521636 329.51385039 -77.13012695 330.73486328 C-115.06490419 331.51137287 -151.62322841 325.47636193 -180 298.25 C-201.65487381 275.87329706 -208.45124073 244.1308949 -208.47363281 213.98339844 C-208.47827022 212.51862465 -208.4832961 211.05385205 -208.48867798 209.58908081 C-208.50172244 205.62965274 -208.50823228 201.67024157 -208.51268864 197.7107954 C-208.51563464 195.22624427 -208.51974239 192.7416976 -208.52419281 190.25714874 C-208.53785204 182.45259429 -208.54752418 174.64805021 -208.5513947 166.84348464 C-208.55585995 157.893218 -208.57334283 148.94310526 -208.6023953 139.99288535 C-208.62417159 133.03786538 -208.63410753 126.08288818 -208.63543582 119.12783456 C-208.63647331 114.99183727 -208.64215031 110.8559849 -208.66025543 106.72002411 C-208.81490547 69.22297497 -205.69322027 32.91054721 -178.5625 4.375 C-136.00831382 -36.08421086 -44.08321774 -40.46312959 0 0 Z M-114.3515625 66.4609375 C-124.09437292 77.61334602 -124.4642514 93.53327409 -124.45776367 107.61401367 C-124.46112228 108.67548615 -124.4644809 109.73695862 -124.46794128 110.83059692 C-124.47739135 114.31806631 -124.4793915 117.80548737 -124.48046875 121.29296875 C-124.48368579 123.73521443 -124.48705019 126.17745992 -124.49055481 128.6197052 C-124.49653147 133.73288418 -124.49839625 138.84604629 -124.49780273 143.95922852 C-124.49770127 150.48075125 -124.51134364 157.00216472 -124.52857494 163.52366161 C-124.5397461 168.56743355 -124.54172036 173.61117951 -124.54119301 178.65496254 C-124.5423658 181.05768523 -124.54674777 183.46040874 -124.55452538 185.86311913 C-125.63700178 213.80649215 -125.63700178 213.80649215 -114.06640625 238.12890625 C-104.37829734 246.39292788 -92.62045425 247.522455 -80.3125 246.625 C-70.36747214 245.28016101 -64.09001176 242.40251176 -57.0625 235.375 C-50.15258257 224.51655833 -49.00817562 212.26224471 -49.0378418 199.67456055 C-49.0301754 197.96487091 -49.0301754 197.96487091 -49.02235413 196.22064209 C-49.00855004 192.48427963 -49.00940809 188.74810355 -49.01171875 185.01171875 C-49.00782662 182.39296908 -49.00349089 179.77422004 -48.99873352 177.1554718 C-48.99055032 171.67760592 -48.99140826 166.19979168 -48.99682617 160.72192383 C-49.00285907 154.42519282 -48.99056165 148.12868565 -48.9692561 141.83199281 C-48.94939168 135.73284274 -48.94648105 129.63379593 -48.94999123 123.53461647 C-48.94948077 120.95884488 -48.94429522 118.38306951 -48.93417931 115.80731773 C-48.18681146 89.81182404 -48.18681146 89.81182404 -58.83984375 66.8203125 C-66.96930534 59.13079824 -77.83151799 57.31278815 -88.640625 57.4765625 C-98.09065081 58.00156393 -107.14872716 59.97562599 -114.3515625 66.4609375 Z " fill="#00FFA1" transform="translate(1510.3125,370.375)"/>
<path d="M0 0 C0.66 0 1.32 0 2 0 C2 153.12 2 306.24 2 464 C0.02 462.515 0.02 462.515 -2 461 C-2.33 464.63 -2.66 468.26 -3 472 C-9.02800126 467.51764009 -13.34052229 461.84257987 -18 456 C-18.90234375 455.06542969 -19.8046875 454.13085938 -20.734375 453.16796875 C-23.58831745 449.17736991 -23.70935003 446.52204613 -23.6875 441.75 C-23.42570084 436.38491326 -23.42570084 436.38491326 -26 432 C-26.33 435.3 -26.66 438.6 -27 442 C-27.66 442 -28.32 442 -29 442 C-30.6640625 439.84448242 -30.6640625 439.84448242 -32.625 436.85546875 C-33.68460938 435.25155273 -33.68460938 435.25155273 -34.765625 433.61523438 C-35.51058 432.47276274 -36.25536991 431.33018343 -37 430.1875 C-37.74415549 429.05622189 -38.48893958 427.92535701 -39.234375 426.79492188 C-40.60466994 424.71322382 -41.97212957 422.6296549 -43.3359375 420.54370117 C-44.54856738 418.69006404 -45.77131191 416.84303213 -47 415 C-47.25760233 412.40686631 -47.25760233 412.40686631 -47.26844215 409.22229385 C-47.28181569 407.40365228 -47.28181569 407.40365228 -47.29545939 405.54827046 C-47.29528079 404.19577483 -47.29490107 402.84327922 -47.29434204 401.49078369 C-47.3009395 400.05932552 -47.30839068 398.62787107 -47.316625 397.19642138 C-47.33668103 393.2530037 -47.34410117 389.3096469 -47.34940362 385.36618543 C-47.35720551 381.11639644 -47.37636307 376.86665576 -47.39382935 372.61689758 C-47.43337941 362.34584689 -47.45349728 352.07479219 -47.47128493 341.80368435 C-47.48005097 336.96509553 -47.49078486 332.12651108 -47.50126266 327.28792572 C-47.53529615 311.19827305 -47.56428024 295.10862312 -47.57876015 279.01893997 C-47.58257989 274.84221646 -47.58642055 270.66549296 -47.59033203 266.48876953 C-47.59129951 265.45067614 -47.59226699 264.41258274 -47.59326379 263.34303197 C-47.6098483 246.54348394 -47.6604906 229.74422148 -47.72549339 212.94479802 C-47.79171066 195.69046555 -47.82766487 178.43627794 -47.83404863 161.18181777 C-47.83837282 151.49690926 -47.85577977 141.81241662 -47.90697098 132.12763214 C-47.95049025 123.87519106 -47.96643522 115.62326675 -47.94703741 107.37072393 C-47.9379764 103.16398715 -47.94156785 98.95831531 -47.9805603 94.75172615 C-48.26064915 62.79982839 -48.26064915 62.79982839 -39 51 C-38.04439528 49.49640025 -37.09833036 47.98657731 -36.171875 46.46484375 C-35.37199483 45.28400799 -34.56510755 44.10787646 -33.75 42.9375 C-33.34265625 42.34001953 -32.9353125 41.74253906 -32.515625 41.12695312 C-31.72448306 39.96686518 -30.92960717 38.80931161 -30.13037109 37.65478516 C-29.00295199 36.00432151 -27.91926023 34.32426812 -26.8359375 32.64453125 C-24.96766419 29.95342267 -23.95882338 29.18352935 -21 28 C-18.79808787 26.11809548 -18.79808787 26.11809548 -18.203125 23.27734375 C-16.75746219 19.33932071 -14.50116377 16.64158673 -11.75 13.5625 C-11.25636963 12.99700439 -10.76273926 12.43150879 -10.25415039 11.84887695 C-9.2802182 10.73336343 -8.30318317 9.62054973 -7.32275391 8.51074219 C-5.65279652 6.60345235 -4.04769318 4.64530312 -2.4375 2.6875 C-1.633125 1.800625 -0.82875 0.91375 0 0 Z " fill="#00FEA9" transform="translate(244,286)"/>
<path d="M0 0 C3.26009513 1.63004756 5.13440692 2.82590046 7.75 5.1875 C8.67039062 6.01314453 8.67039062 6.01314453 9.609375 6.85546875 C10.39828125 7.56316406 11.1871875 8.27085937 12 9 C12.6431463 9.34951635 13.2862926 9.69903269 13.94892818 10.05914044 C16.68253889 11.80130373 18.20164722 13.27777086 20 16 C21.24088998 22.44261974 21.05855122 28.84576578 20.98222351 35.38592529 C20.98786066 37.40686835 20.99700339 39.42780416 21.00935107 41.44871736 C21.03307847 47.00290586 21.0068487 52.55591238 20.97250211 58.11000419 C20.94414843 64.09911639 20.96190005 70.08811283 20.97395325 76.07725525 C20.98838645 86.45470262 20.97349089 96.83184185 20.93753624 107.20922089 C20.89985851 118.09428551 20.87744317 128.97919417 20.87583351 139.86432648 C20.87571897 140.5413335 20.87560443 141.21834052 20.87548641 141.91586291 C20.87506829 144.66396721 20.87475954 147.41207149 20.87459595 150.16017581 C20.8730536 175.20242667 20.83261421 200.24445896 20.76831055 225.28662109 C20.70758678 248.93605723 20.6721739 272.5853488 20.66577148 296.23486328 C20.66556846 296.96368675 20.66536545 297.69251022 20.66515627 298.44341924 C20.66454303 300.64829709 20.66393838 302.85317493 20.6633355 305.05805278 C20.66253236 307.9864494 20.66171608 310.91484603 20.66089153 313.84324265 C20.66069437 314.56579474 20.6604972 315.28834683 20.66029406 316.03279444 C20.65390458 338.59414381 20.62560751 361.15546845 20.59320132 383.71679359 C20.58244612 391.20553245 20.57300681 398.69426811 20.56763434 406.18301296 C20.56690284 407.19529249 20.56690284 407.19529249 20.56615657 408.22802212 C20.56567076 408.90152624 20.56518495 409.57503036 20.56468441 410.2689437 C20.55530422 423.22371031 20.53608382 436.17839948 20.49660971 449.13311616 C20.4787387 455.05543661 20.46559969 460.97766516 20.46528244 466.90001488 C20.46480552 472.31432482 20.45056635 477.72841207 20.42499492 483.14266005 C20.41813504 485.10815959 20.41638536 487.07368449 20.42007979 489.03919253 C20.42430368 491.69756605 20.4103213 494.3552204 20.39148998 497.01351547 C20.39708424 497.78815842 20.4026785 498.56280137 20.40844229 499.36091834 C20.34350951 504.57440996 20.34350951 504.57440996 18.53144008 506.81946778 C18.02606485 507.20904341 17.52068963 507.59861905 17 508 C16.70480469 508.94875 16.40960937 509.8975 16.10546875 510.875 C14.79615857 514.57623019 13.13706877 516.3008715 10.3125 519 C9.42175781 519.85335937 8.53101563 520.70671875 7.61328125 521.5859375 C-1.49514563 530 -1.49514563 530 -4 530 C-4 357.74 -4 185.48 -4 8 C-2.02 8.99 -2.02 8.99 0 10 C0 6.7 0 3.4 0 0 Z " fill="#00FDA8" transform="translate(713,257)"/>
<path d="M0 0 C0 169.29 0 338.58 0 513 C-0.99 512.67 -1.98 512.34 -3 512 C-3.33 515.3 -3.66 518.6 -4 522 C-11.95911339 517.67365958 -21.50656048 510.43184654 -24.86867729 501.75924021 C-26.19122471 495.91935152 -25.96486635 490.01987054 -25.82400513 484.06964111 C-25.83271036 482.08714052 -25.84800368 480.10465992 -25.86925685 478.12225413 C-25.90839147 472.71036501 -25.85469316 467.30287605 -25.78496146 461.89144373 C-25.72610541 456.04287765 -25.7543929 450.19463265 -25.77172852 444.34588623 C-25.79213855 432.90607048 -25.73332896 421.46797651 -25.64823867 410.0285131 C-25.55257356 396.70966664 -25.53947409 383.39099066 -25.53066288 370.07187495 C-25.51384507 346.31740074 -25.42532758 322.56367677 -25.29638672 298.80957031 C-25.17128569 275.74835891 -25.0863479 252.68750414 -25.05029297 229.62597656 C-25.04916927 228.91463992 -25.04804556 228.20330328 -25.04688781 227.47041098 C-25.03786322 221.74774322 -25.02897953 216.02507523 -25.02035631 210.30240686 C-24.98208404 184.96935288 -24.90987025 159.63638919 -24.8322174 134.30342948 C-24.82026738 130.31305928 -24.80911314 126.32268753 -24.79815531 122.33231449 C-24.75913329 108.3743265 -24.7102332 94.41648148 -24.63320209 80.45864597 C-24.60138439 74.68615738 -24.57408413 68.91374978 -24.5594902 63.14118958 C-24.54589092 57.86409374 -24.51843182 52.58726407 -24.47950588 47.31029591 C-24.46776054 45.39484677 -24.46109077 43.47935889 -24.45983125 41.56387416 C-24.45731613 38.97305676 -24.43661366 36.38302392 -24.41104317 33.79234695 C-24.4146365 33.03763859 -24.41822982 32.28293022 -24.42193204 31.5053519 C-24.34373161 26.42210072 -24.34373161 26.42210072 -22.51947582 24.18192363 C-22.0180488 23.79188883 -21.51662178 23.40185403 -21 23 C-20.76152344 22.10796875 -20.52304688 21.2159375 -20.27734375 20.296875 C-18.43651367 15.54561937 -15.19816013 12.73175166 -11.5625 9.25 C-10.88123047 8.57839844 -10.19996094 7.90679687 -9.49804688 7.21484375 C-2.11692917 0 -2.11692917 0 0 0 Z " fill="#00FEA9" transform="translate(271,261)"/>
<path d="M0 0 C0 152.79 0 305.58 0 463 C-1.65 463 -3.3 463 -5 463 C-5 465.64 -5 468.28 -5 471 C-11.6 471 -18.2 471 -25 471 C-25.06837758 413.97852222 -25.12150395 356.95704961 -25.15319599 299.9355389 C-25.15693812 293.20987417 -25.16082776 286.48420952 -25.16479492 279.75854492 C-25.1651872 279.08924767 -25.16557948 278.41995042 -25.16598364 277.73037144 C-25.17877586 256.02251764 -25.20131587 234.31468721 -25.22889166 212.60684758 C-25.25797049 189.67424468 -25.27598294 166.74165141 -25.28226548 143.8090294 C-25.28639023 130.06498766 -25.29943686 116.321013 -25.3237494 102.57699189 C-25.33955736 93.1634663 -25.34441161 83.74997558 -25.34050413 74.33643766 C-25.33857486 68.89817936 -25.34161664 63.46003861 -25.35761642 58.02180099 C-25.37213929 53.04949483 -25.37300228 48.07738606 -25.36269668 43.10507111 C-25.36142166 41.30018049 -25.36529151 39.49527791 -25.37464955 37.69041111 C-25.38658038 35.2486033 -25.38026716 32.8075207 -25.36914349 30.36572552 C-25.37702453 29.6548598 -25.38490557 28.94399408 -25.39302543 28.21158698 C-25.3629217 25.31407297 -25.31219416 23.43775463 -23.60192853 21.03964216 C-22 20 -22 20 -20 20 C-20.11601562 19.11570312 -20.23203125 18.23140625 -20.3515625 17.3203125 C-20 14 -20 14 -17.5859375 11.3671875 C-16.53028681 10.51790461 -15.45920559 9.68751341 -14.375 8.875 C-13.85292969 8.45863281 -13.33085937 8.04226562 -12.79296875 7.61328125 C-3.12720415 0 -3.12720415 0 0 0 Z " fill="#00FEA9" transform="translate(297,241)"/>
<path d="M0 0 C1.12760492 1.12760492 2.25449114 2.25593302 3.37890625 3.38671875 C4.5432398 4.54544106 5.7191523 5.69257173 6.90234375 6.83203125 C7.90974609 7.81236328 7.90974609 7.81236328 8.9375 8.8125 C9.56527344 9.41707031 10.19304688 10.02164062 10.83984375 10.64453125 C11.90912109 11.81048828 11.90912109 11.81048828 13 13 C13.74120155 13.67831738 13.74120155 13.67831738 14.49737686 14.37033814 C20.88386944 21.1650497 19.82563341 29.63121416 19.74171448 38.34223938 C19.7464815 40.12892812 19.75387504 41.91561146 19.76366371 43.70227975 C19.7828833 48.60415753 19.76471762 53.50529065 19.74037087 58.40711939 C19.72062273 63.69613476 19.73548879 68.98506765 19.74601746 74.27409363 C19.76113747 84.63076076 19.74422754 94.98714039 19.71646655 105.34377179 C19.68531551 117.39811894 19.68552504 129.45240391 19.68698429 141.50678375 C19.68848597 163.00759431 19.66100382 184.50827096 19.61743164 206.0090332 C19.57514335 226.8869877 19.55392045 247.76482436 19.5559082 268.64282227 C19.55602807 269.92940636 19.55614794 271.21599045 19.55627144 272.54156194 C19.55645304 274.46805882 19.55645304 274.46805882 19.5566383 276.43347484 C19.55870589 300.18710227 19.54105224 323.94067952 19.51417865 347.6942907 C19.50511779 356.10375984 19.50193861 364.51321978 19.50058174 372.92269325 C19.49853883 383.16215277 19.4851932 393.40152767 19.45758332 403.64095125 C19.44370015 408.86862096 19.43460355 414.09618221 19.43836594 419.32387161 C19.44163914 424.10344856 19.43116975 428.88278515 19.40942036 433.66231193 C19.40395858 435.39696482 19.40361056 437.13164238 19.40872223 438.86629633 C19.4148758 441.21331991 19.40280119 443.55954513 19.38590336 445.90649891 C19.38273345 447.86675549 19.38273345 447.86675549 19.3794995 449.86661321 C18.96914467 453.25476105 18.56227623 453.93973998 16 456 C15.72542969 456.9075 15.45085938 457.815 15.16796875 458.75 C13.65066435 462.97206442 11.26117413 465.67775461 8.3125 469 C7.80783203 469.59039063 7.30316406 470.18078125 6.78320312 470.7890625 C3.08372854 475.03574129 -0.59676502 478.22579859 -5 482 C-5 325.91 -5 169.82 -5 9 C-3.02 9.99 -3.02 9.99 -1 11 C-0.67 7.37 -0.34 3.74 0 0 Z " fill="#00FEA9" transform="translate(740,281)"/>
<path d="M0 0 C0.33 0 0.66 0 1 0 C1 107.58 1 215.16 1 326 C0.01 324.68 -0.98 323.36 -2 322 C-2.495 327.94 -2.495 327.94 -3 334 C-6.32379731 330.67620269 -7.71880059 329.04368041 -9.62109375 325.03515625 C-10.0795166 324.07754395 -10.53793945 323.11993164 -11.01025391 322.13330078 C-12.93456623 317.99303386 -14.85865745 313.85307342 -16.75244141 309.69873047 C-17.72157826 307.60228452 -18.74642073 305.53155137 -19.79296875 303.47265625 C-23.65179073 295.2231512 -23.60386514 286.80858657 -23.63720703 277.84228516 C-23.68908297 271.76336819 -24.10045259 267.38487376 -27 262 C-27.33 266.95 -27.66 271.9 -28 277 C-37.48598981 262.77101528 -39.34782457 239.64769274 -42 223 C-42.16516113 221.97825684 -42.33032227 220.95651367 -42.50048828 219.90380859 C-47.4489763 187.62861321 -47.44628552 152.20201262 -42 120 C-41.79600586 118.77120117 -41.59201172 117.54240234 -41.38183594 116.27636719 C-35.09778484 79.36785747 -35.09778484 79.36785747 -29 65 C-28.01 64.505 -28.01 64.505 -27 64 C-25.08657245 59.69478802 -23.94855082 55.91193875 -23.375 51.25 C-20.90781137 36.74531848 -10.24699121 10.24699121 0 0 Z " fill="#00FDA8" transform="translate(195,355)"/>
<path d="M0 0 C6.27 0 12.54 0 19 0 C19 141.24 19 282.48 19 428 C17.68 428.66 16.36 429.32 15 430 C15.10441406 430.89589844 15.20882812 431.79179688 15.31640625 432.71484375 C15 436 15 436 12.83984375 438.37890625 C11.88207031 439.09949219 10.92429687 439.82007813 9.9375 440.5625 C8.9371875 441.325625 7.936875 442.08875 6.90625 442.875 C5.9471875 443.57625 4.988125 444.2775 4 445 C2.90171875 445.8353125 2.90171875 445.8353125 1.78125 446.6875 C-2.66051136 450 -2.66051136 450 -5 450 C-5 304.14 -5 158.28 -5 8 C-3.35 8 -1.7 8 0 8 C0 5.36 0 2.72 0 0 Z " fill="#00FEA9" transform="translate(688,357)"/>
<path d="M0 0 C0 132.99 0 265.98 0 403 C-1.32 403 -2.64 403 -4 403 C-4 405.64 -4 408.28 -4 411 C-10.6 411 -17.2 411 -24 411 C-24 281.97 -24 152.94 -24 20 C-22.35 19.34 -20.7 18.68 -19 18 C-19.18433594 16.96746094 -19.36867188 15.93492187 -19.55859375 14.87109375 C-19 11 -19 11 -17.32861328 9.39111328 C-14.96188784 7.82003027 -12.55608915 6.4231528 -10.0625 5.0625 C-9.21236328 4.56943359 -8.36222656 4.07636719 -7.48632812 3.56835938 C-1.27510619 0 -1.27510619 0 0 0 Z " fill="#00FEA9" transform="translate(322,224)"/>
<path d="M0 0 C12.72138812 12.1798741 20.25697974 24.21091094 20.71047974 42.14523315 C20.82162451 47.68913418 20.77017461 53.22640086 20.68355489 58.77024102 C20.63067375 63.15866327 20.65999171 67.54670653 20.67849731 71.93530273 C20.70205677 80.50014668 20.65197292 89.0630014 20.57647015 97.62748216 C20.49153979 107.61139201 20.48332739 117.59494176 20.47843145 127.5791582 C20.46733625 145.38930181 20.39104358 163.19855086 20.27587891 181.00830078 C20.16429491 198.27788565 20.09362455 215.54695878 20.07080078 232.81689453 C20.06938427 233.88273792 20.06796775 234.94858132 20.06650831 236.04672299 C20.06368976 238.19401105 20.06088097 240.34129912 20.05808198 242.48858721 C20.05670059 243.54789861 20.0553192 244.60721001 20.05389595 245.69862175 C20.05253909 246.75531838 20.05118223 247.81201501 20.04978425 248.90073275 C20.02732243 265.38777607 19.97336815 281.87473609 19.91383926 298.36168208 C19.89598681 303.33689496 19.87961822 308.31210394 19.86661768 313.28733206 C19.83914418 323.73718124 19.80109336 334.18675538 19.72719027 344.63639234 C19.69680841 348.95530823 19.67248666 353.27401441 19.66523743 357.59303665 C19.65831729 361.54655859 19.6328805 365.49951355 19.5926175 369.45283259 C19.58121195 370.88229511 19.57645306 372.31182945 19.57903565 373.74133514 C19.5955542 386.84986977 19.5955542 386.84986977 15 393 C14.38366699 394.03398926 14.38366699 394.03398926 13.75488281 395.08886719 C1.91990178 414.30834892 1.91990178 414.30834892 -3 420 C-3.66 420 -4.32 420 -5 420 C-5 284.04 -5 148.08 -5 8 C-3.68 8.99 -2.36 9.98 -1 11 C-0.67 7.37 -0.34 3.74 0 0 Z " fill="#00FEA9" transform="translate(766,312)"/>
<path d="M0 0 C6.6 0 13.2 0 20 0 C20.06837433 45.06345273 20.12149619 90.12689865 20.15319599 135.19039302 C20.1569483 140.50534674 20.16083125 145.82030035 20.16479492 151.13525391 C20.16558185 152.19340691 20.16636878 153.25155992 20.16717956 154.34177817 C20.18024883 171.49613769 20.203911 188.65046717 20.23145839 205.80480884 C20.25947035 223.39458965 20.27616732 240.98435468 20.28226548 258.57415688 C20.28639069 269.43612595 20.29943975 280.29801017 20.3237494 291.15995313 C20.33955469 298.59901272 20.34441223 306.03802816 20.34050413 313.47710334 C20.33857443 317.77502492 20.34162132 322.07279778 20.35761642 326.37069321 C20.37213354 330.29994204 20.37300626 334.22894106 20.36269668 338.15820099 C20.36142108 339.58488086 20.36529592 341.01157584 20.37464955 342.43822561 C20.38656845 344.36723284 20.37845744 346.29633358 20.36914349 348.22535515 C20.37085223 349.83726795 20.37085223 349.83726795 20.37259549 351.48174465 C20.18816072 352.72828105 20.18816072 352.72828105 20 354 C19.01 354.66 18.02 355.32 17 356 C16.79503906 357.07378906 16.59007812 358.14757812 16.37890625 359.25390625 C14.38022462 364.68375239 10.84065998 366.20848948 5.9375 368.9375 C5.09638672 369.43056641 4.25527344 369.92363281 3.38867188 370.43164062 C-2.75326153 374 -2.75326153 374 -4 374 C-4 253.55 -4 133.1 -4 9 C-2.68 9 -1.36 9 0 9 C0 6.03 0 3.06 0 0 Z " fill="#00FEA9" transform="translate(662,449)"/>
<path d="M0 0 C1.83401808 0.2873295 3.66718144 0.58011583 5.5 0.875 C7.03140625 1.11863281 7.03140625 1.11863281 8.59375 1.3671875 C12.43016057 2.07991515 16.21445141 3.05361285 20 4 C20 120.82 20 237.64 20 358 C18.68 358 17.36 358 16 358 C16 360.64 16 363.28 16 366 C9.4 366 2.8 366 -4 366 C-4 248.19 -4 130.38 -4 9 C-2.68 9 -1.36 9 0 9 C0 6.03 0 3.06 0 0 Z " fill="#00FDA8" transform="translate(559,183)"/>
<path d="M0 0 C2.79224194 0.3079239 5.58371427 0.62112437 8.375 0.9375 C9.1690625 1.02451172 9.963125 1.11152344 10.78125 1.20117188 C16.7734375 1.88671875 16.7734375 1.88671875 19 3 C19 114.87 19 226.74 19 342 C17.68 342 16.36 342 15 342 C15 344.64 15 347.28 15 350 C8.4 350 1.8 350 -5 350 C-5 237.47 -5 124.94 -5 9 C-3.35 9 -1.7 9 0 9 C0 6.03 0 3.06 0 0 Z " fill="#00FEA9" transform="translate(534,179)"/>
<path d="M0 0 C6.6 0 13.2 0 20 0 C20 110.22 20 220.44 20 334 C18.68 333.67 17.36 333.34 16 333 C16 335.97 16 338.94 16 342 C14.16608458 341.88385202 12.33287372 341.75656767 10.5 341.625 C9.4790625 341.55539062 8.458125 341.48578125 7.40625 341.4140625 C3.548345 340.94509698 -0.22973121 339.9425672 -4 339 C-4 229.77 -4 120.54 -4 8 C-2.68 8 -1.36 8 0 8 C0 5.36 0 2.72 0 0 Z " fill="#00FFAA" transform="translate(431,522)"/>
<path d="M0 0 C0 108.57 0 217.14 0 329 C-1.32 329 -2.64 329 -4 329 C-4 331.97 -4 334.94 -4 338 C-10.6 338 -17.2 338 -24 338 C-24 232.4 -24 126.8 -24 18 C-22.68 17.67 -21.36 17.34 -20 17 C-20 14.69 -20 12.38 -20 10 C-16.85591306 8.33002304 -13.70944906 6.66457635 -10.5625 5 C-9.66466797 4.52304688 -8.76683594 4.04609375 -7.84179688 3.5546875 C-6.98779297 3.10351562 -6.13378906 2.65234375 -5.25390625 2.1875 C-4.46314697 1.76855469 -3.6723877 1.34960938 -2.85766602 0.91796875 C-1 0 -1 0 0 0 Z " fill="#00FDA8" transform="translate(348,210)"/>
<path d="M0 0 C6.6 0 13.2 0 20 0 C20 102.63 20 205.26 20 311 C18.68 311 17.36 311 16 311 C16 313.97 16 316.94 16 320 C13.60288289 319.54771375 11.20747182 319.0883992 8.8125 318.625 C8.13896484 318.49867188 7.46542969 318.37234375 6.77148438 318.2421875 C2.8942514 317.48565424 -0.28773413 316.48490635 -4 315 C-4 213.69 -4 112.38 -4 8 C-2.68 8 -1.36 8 0 8 C0 5.36 0 2.72 0 0 Z " fill="#00FDA8" transform="translate(405,540)"/>
<path d="M0 0 C6.6 0.33 13.2 0.66 20 1 C20 102.97 20 204.94 20 310 C18.68 310 17.36 310 16 310 C16 312.64 16 315.28 16 318 C9.4 318 2.8 318 -4 318 C-4 216.03 -4 114.06 -4 9 C-2.68 9 -1.36 9 0 9 C0 6.03 0 3.06 0 0 Z " fill="#00FEA9" transform="translate(508,177)"/>
<path d="M0 0 C6.27 0 12.54 0 19 0 C19 99.66 19 199.32 19 302 C17.68 302 16.36 302 15 302 C15 304.64 15 307.28 15 310 C12.97924434 310.02734857 10.95837779 310.0465517 8.9375 310.0625 C7.81214844 310.07410156 6.68679688 310.08570313 5.52734375 310.09765625 C2 310 2 310 -5 309 C-5 209.67 -5 110.34 -5 8 C-3.35 8 -1.7 8 0 8 C0 5.36 0 2.72 0 0 Z " fill="#00FEA9" transform="translate(457,556)"/>
<path d="M0 0 C1.83482889 0.43118479 3.66778967 0.87032053 5.5 1.3125 C7.03140625 1.67794922 7.03140625 1.67794922 8.59375 2.05078125 C12.46959672 3.13086239 16.23265502 4.58724563 20 6 C20 103.35 20 200.7 20 301 C18.68 301 17.36 301 16 301 C16 303.97 16 306.94 16 310 C9.4 310 2.8 310 -4 310 C-4 210.67 -4 111.34 -4 9 C-2.68 9 -1.36 9 0 9 C0 6.03 0 3.06 0 0 Z " fill="#00FEA9" transform="translate(585,189)"/>
<path d="M0 0 C2.78380964 2.78380964 4.02260182 4.67066139 5.7421875 8.12109375 C6.25136719 9.14009766 6.76054688 10.15910156 7.28515625 11.20898438 C7.80980469 12.27439453 8.33445312 13.33980469 8.875 14.4375 C9.39191406 15.46810547 9.90882813 16.49871094 10.44140625 17.56054688 C11.99761192 20.69451775 13.53505107 23.82197394 15 27 C15.40458498 27.69897337 15.80916996 28.39794674 16.22601509 29.11810112 C21.73489955 39.85391519 20.74847671 51.41803184 20.7421875 63.19018555 C20.75880479 65.64398588 20.77744417 68.09777322 20.79794312 70.55154419 C20.84122952 76.50600701 20.86076775 82.46024825 20.86703002 88.41483899 C20.87216303 93.26563292 20.88485101 98.11634823 20.90270996 102.96711159 C20.95245097 116.77000087 20.98017614 130.57269853 20.98125458 144.37567761 C20.98131752 145.11803456 20.98138046 145.86039152 20.98144531 146.62524414 C20.98150322 147.3685259 20.98156113 148.11180766 20.98162079 148.8776131 C20.98393777 160.8913348 21.03954526 172.90414076 21.1193583 184.91757443 C21.20097005 197.30193846 21.24060337 209.68585494 21.23832512 222.070494 C21.2379169 229.00373895 21.25402885 235.93596805 21.31585693 242.86896324 C21.37381736 249.40385202 21.37318095 255.93721515 21.3356514 262.47226334 C21.3307557 264.85000783 21.34407783 267.22788331 21.37855148 269.60538292 C21.62385319 287.68452063 17.27118593 301.00139199 9 317 C8.29456928 318.41990851 7.59188007 319.84118584 6.89320374 321.26443005 C5.4209555 324.23054325 3.88810035 327.15028298 2.3125 330.0625 C1.78978516 331.04669922 1.26707031 332.03089844 0.72851562 333.04492188 C-0.50648705 335.36763332 -1.74889625 337.68593584 -3 340 C-3.33 340 -3.66 340 -4 340 C-4 230.44 -4 120.88 -4 8 C-3.01 9.32 -2.02 10.64 -1 12 C-0.67 8.04 -0.34 4.08 0 0 Z " fill="#00FEA9" transform="translate(792,352)"/>
<path d="M0 0 C0.33 0 0.66 0 1 0 C1.33 132.66 1.66 265.32 2 402 C1.34 402 0.68 402 0 402 C-1.6640625 399.84448242 -1.6640625 399.84448242 -3.625 396.85546875 C-4.68460938 395.25155273 -4.68460938 395.25155273 -5.765625 393.61523438 C-6.51058 392.47276274 -7.25536991 391.33018343 -8 390.1875 C-8.74415549 389.05622189 -9.48893958 387.92535701 -10.234375 386.79492188 C-11.60466994 384.71322382 -12.97212957 382.6296549 -14.3359375 380.54370117 C-15.54856738 378.69006404 -16.77131191 376.84303213 -18 375 C-18.25299966 372.3965103 -18.25299966 372.3965103 -18.25726891 369.19715405 C-18.2637178 367.97917604 -18.27016669 366.76119803 -18.276811 365.5063116 C-18.27386846 364.1476145 -18.270733 362.78891781 -18.26742554 361.43022156 C-18.27116004 359.99235079 -18.27576076 358.55448205 -18.28115618 357.11661655 C-18.29342652 353.15580586 -18.29312099 349.19507938 -18.29076743 345.234254 C-18.29036028 340.9662451 -18.30138873 336.69826357 -18.31088257 332.43026733 C-18.3275159 324.06460036 -18.33299318 315.69896157 -18.33410732 307.33327945 C-18.33505675 300.53467522 -18.33916173 293.73608031 -18.34550858 286.93747902 C-18.36312777 267.6727953 -18.37234645 248.40813389 -18.37084763 229.14344206 C-18.37076772 228.10425315 -18.3706878 227.06506424 -18.37060547 225.99438477 C-18.37052371 224.95393058 -18.37044195 223.91347639 -18.37035771 222.84149329 C-18.36954473 205.97776476 -18.38868349 189.11412555 -18.4168822 172.25042286 C-18.44559128 154.94528263 -18.45942357 137.64018598 -18.45769465 120.33502132 C-18.45703004 110.61532975 -18.46255337 100.89573178 -18.48405075 91.17606163 C-18.50223663 82.90040336 -18.50663132 74.62488111 -18.4930319 66.34921154 C-18.48648894 62.12567139 -18.48643264 57.90239239 -18.5037384 53.67887688 C-18.51941604 49.81298878 -18.51666038 45.94757002 -18.49917014 42.08169375 C-18.49608845 40.68262599 -18.49977654 39.28352366 -18.51089029 37.88449665 C-18.60595741 25.06915166 -18.60595741 25.06915166 -14 20 C-13.01754079 18.51608052 -12.03572114 17.03173732 -11.0546875 15.546875 C-9.99483333 13.94788905 -8.93493669 12.34893125 -7.875 10.75 C-7.06869141 9.52796875 -7.06869141 9.52796875 -6.24609375 8.28125 C-5.47072266 7.11335938 -5.47072266 7.11335938 -4.6796875 5.921875 C-4.21288574 5.21643555 -3.74608398 4.51099609 -3.26513672 3.78417969 C-2 2 -2 2 0 0 Z " fill="#00FEA9" transform="translate(215,326)"/>
<path d="M0 0 C6.6 0 13.2 0 20 0 C20 89.1 20 178.2 20 270 C18.68 270.66 17.36 271.32 16 272 C16 274.31 16 276.62 16 279 C13.04492094 280.50647598 10.08542659 282.00406365 7.125 283.5 C5.86236328 284.14388672 5.86236328 284.14388672 4.57421875 284.80078125 C3.36572266 285.40986328 3.36572266 285.40986328 2.1328125 286.03125 C1.38918457 286.40830078 0.64555664 286.78535156 -0.12060547 287.17382812 C-2 288 -2 288 -4 288 C-4 195.93 -4 103.86 -4 9 C-2.68 9 -1.36 9 0 9 C0 6.03 0 3.06 0 0 Z " fill="#00FDA8" transform="translate(636,548)"/>
<path d="M0 0 C6.6 0 13.2 0 20 0 C20 89.76 20 179.52 20 272 C18.68 272 17.36 272 16 272 C16 274.64 16 277.28 16 280 C9.4 280 2.8 280 -4 280 C-4 190.57 -4 101.14 -4 9 C-3.01 8.67 -2.02 8.34 -1 8 C-0.67 5.36 -0.34 2.72 0 0 Z " fill="#00FDA8" transform="translate(482,177)"/>
<path d="M0 0 C6.6 0 13.2 0 20 0 C20 88.77 20 177.54 20 269 C18.68 269 17.36 269 16 269 C16 271.97 16 274.94 16 278 C9.4 278 2.8 278 -4 278 C-4 189.23 -4 100.46 -4 9 C-2.68 9 -1.36 9 0 9 C0 6.03 0 3.06 0 0 Z " fill="#00FDA8" transform="translate(482,589)"/>
<path d="M0 0 C0 88.77 0 177.54 0 269 C-1.32 269 -2.64 269 -4 269 C-4 271.64 -4 274.28 -4 277 C-10.6 277 -17.2 277 -24 277 C-24 190.87 -24 104.74 -24 16 C-22.68 15.67 -21.36 15.34 -20 15 C-20 12.69 -20 10.38 -20 8 C-17.93824636 7.040062 -15.87556531 6.08211576 -13.8125 5.125 C-12.66394531 4.59132812 -11.51539063 4.05765625 -10.33203125 3.5078125 C-2.58031088 0 -2.58031088 0 0 0 Z " fill="#00FEA9" transform="translate(374,199)"/>
<path d="M0 0 C6.27 0 12.54 0 19 0 C19 84.48 19 168.96 19 256 C17.68 255.67 16.36 255.34 15 255 C15 257.97 15 260.94 15 264 C7.49369251 262.71320443 2.42383223 260.96953289 -5 258 C-5 175.83 -5 93.66 -5 9 C-3.35 9 -1.7 9 0 9 C0 6.03 0 3.06 0 0 Z " fill="#00FEA9" transform="translate(380,589)"/>
<path d="M0 0 C1.12019531 0.42152344 2.24039063 0.84304687 3.39453125 1.27734375 C4.86717658 1.83075824 6.33983343 2.38414205 7.8125 2.9375 C8.55048828 3.21529297 9.28847656 3.49308594 10.04882812 3.77929688 C11.11713867 4.18051758 11.11713867 4.18051758 12.20703125 4.58984375 C12.8616333 4.83597412 13.51623535 5.08210449 14.19067383 5.33569336 C15.78311815 5.92037033 17.39066676 6.46355559 19 7 C19 84.88 19 162.76 19 243 C17.68 243 16.36 243 15 243 C15 245.64 15 248.28 15 251 C8.4 251 1.8 251 -5 251 C-5 171.14 -5 91.28 -5 9 C-2.525 9.495 -2.525 9.495 0 10 C0 6.7 0 3.4 0 0 Z " fill="#00FEA9" transform="translate(611,197)"/>
<path d="M0 0 C0 78.87 0 157.74 0 239 C-1.32 239 -2.64 239 -4 239 C-4 241.64 -4 244.28 -4 247 C-10.6 247 -17.2 247 -24 247 C-24 168.79 -24 90.58 -24 10 C-22.35 10 -20.7 10 -19 10 C-19 7.36 -19 4.72 -19 2 C-15.47772038 0.9676077 -12.02894966 0.69731809 -8.375 0.4375 C-7.22773438 0.35371094 -6.08046875 0.26992187 -4.8984375 0.18359375 C-3.26774665 0.08030201 -1.63395895 0 0 0 Z " fill="#00FEA9" transform="translate(476,177)"/>
<path d="M0 0 C6.6 0 13.2 0 20 0 C20 76.23 20 152.46 20 231 C18.68 231 17.36 231 16 231 C16 233.64 16 236.28 16 239 C10.00741199 241.99629401 2.68960157 240.62835547 -4 241 C-4 164.11 -4 87.22 -4 8 C-2.68 8 -1.36 8 0 8 C0 5.36 0 2.72 0 0 Z " fill="#00FFAA" transform="translate(508,626)"/>
<path d="M0 0 C0 72.6 0 145.2 0 220 C-1.32 220 -2.64 220 -4 220 C-4 222.97 -4 225.94 -4 229 C-10.6 229 -17.2 229 -24 229 C-24 157.06 -24 85.12 -24 11 C-22.68 11 -21.36 11 -20 11 C-20 8.36 -20 5.72 -20 3 C-13.23908163 0.93033111 -7.13261907 0 0 0 Z " fill="#00FEA9" transform="translate(451,180)"/>
<path d="M0 0 C0 72.6 0 145.2 0 220 C-1.32 220 -2.64 220 -4 220 C-4 222.97 -4 225.94 -4 229 C-10.6 229 -17.2 229 -24 229 C-24 158.05 -24 87.1 -24 14 C-22.35 13.67 -20.7 13.34 -19 13 C-19 10.36 -19 7.72 -19 5 C-16.58570231 4.15919981 -14.16896007 3.32718598 -11.75 2.5 C-10.72712891 2.14228516 -10.72712891 2.14228516 -9.68359375 1.77734375 C-6.23586997 0.60578713 -3.68297096 0 0 0 Z " fill="#00FEA9" transform="translate(399,191)"/>
<path d="M0 0 C0 71.61 0 143.22 0 217 C-1.32 217 -2.64 217 -4 217 C-4 219.97 -4 222.94 -4 226 C-10.6 226 -17.2 226 -24 226 C-24 155.71 -24 85.42 -24 13 C-22.68 12.67 -21.36 12.34 -20 12 C-20 9.69 -20 7.38 -20 5 C-5.9 0 -5.9 0 0 0 Z " fill="#00FDA8" transform="translate(425,184)"/>
<path d="M0 0 C6.27 0 12.54 0 19 0 C19 66.99 19 133.98 19 203 C17.68 203.33 16.36 203.66 15 204 C15 206.31 15 208.62 15 211 C8.34274363 214.58467651 2.41700891 216.5276637 -5 219 C-5 149.37 -5 79.74 -5 8 C-3.35 8 -1.7 8 0 8 C0 5.36 0 2.72 0 0 Z " fill="#00FEA9" transform="translate(611,628)"/>
<path d="M0 0 C6.27 0 12.54 0 19 0 C19 66 19 132 19 200 C17.68 200 16.36 200 15 200 C15 202.64 15 205.28 15 208 C12.22970414 208.50314563 9.4588348 209.00263838 6.6875 209.5 C5.90181641 209.64308594 5.11613281 209.78617188 4.30664062 209.93359375 C3.54931641 210.06894531 2.79199219 210.20429687 2.01171875 210.34375 C1.31522217 210.46943359 0.61872559 210.59511719 -0.09887695 210.72460938 C-2 211 -2 211 -5 211 C-5 144.01 -5 77.02 -5 8 C-3.35 8 -1.7 8 0 8 C0 5.36 0 2.72 0 0 Z " fill="#00FEA9" transform="translate(534,654)"/>
<path d="M0 0 C6.6 0 13.2 0 20 0 C20 65.67 20 131.34 20 199 C19.01 199 18.02 199 17 199 C16.67 201.97 16.34 204.94 16 208 C8.94150646 205.80145283 2.84048042 203.10930928 -4 200 C-4 136.97 -4 73.94 -4 9 C-2.68 9 -1.36 9 0 9 C0 6.03 0 3.06 0 0 Z " fill="#00FEA9" transform="translate(354,637)"/>
<path d="M0 0 C6.6 0 13.2 0 20 0 C20 61.38 20 122.76 20 186 C18.68 186.33 17.36 186.66 16 187 C16 189.64 16 192.28 16 195 C6.1 196.98 6.1 196.98 -4 199 C-4 135.97 -4 72.94 -4 8 C-2.68 8 -1.36 8 0 8 C0 5.36 0 2.72 0 0 Z " fill="#00FFAA" transform="translate(559,662)"/>
<path d="M0 0 C6.6 0 13.2 0 20 0 C20 59.73 20 119.46 20 181 C19.01 181.33 18.02 181.66 17 182 C16.67 184.31 16.34 186.62 16 189 C13.60539412 189.81627446 11.20943474 190.62811645 8.8125 191.4375 C8.13896484 191.66759766 7.46542969 191.89769531 6.77148438 192.13476562 C3.16657428 193.34812561 -0.25333173 194.25066635 -4 195 C-4 133.29 -4 71.58 -4 8 C-2.68 8 -1.36 8 0 8 C0 5.36 0 2.72 0 0 Z " fill="#00FFAA" transform="translate(585,660)"/>
<path d="M0 0 C5 1 5 1 20 9 C20 62.13 20 115.26 20 170 C18.68 170 17.36 170 16 170 C16 172.97 16 175.94 16 179 C9.4 179 2.8 179 -4 179 C-4 122.57 -4 66.14 -4 8 C-3.01 8.33 -2.02 8.66 -1 9 C-0.67 6.03 -0.34 3.06 0 0 Z " fill="#00FDA8" transform="translate(636,208)"/>
<path d="M0 0 C29.0194947 43.52924205 20.69260398 126.81221883 11.25 175.1875 C4.24911609 209.75088391 4.24911609 209.75088391 -1 215 C-1.71408334 216.98356483 -2.38617742 218.98315437 -3 221 C-3.33 221 -3.66 221 -4 221 C-4 151.04 -4 81.08 -4 9 C-2 12 -2 12 -1 15 C-0.67 10.05 -0.34 5.1 0 0 Z " fill="#00FEA9" transform="translate(818,411)"/>
<path d="M0 0 C6.6 0 13.2 0 20 0 C20 44.88 20 89.76 20 136 C18.68 135.67 17.36 135.34 16 135 C16 138.3 16 141.6 16 145 C12.85293176 143.52341348 9.7073164 142.04386813 6.5625 140.5625 C5.66466797 140.14162109 4.76683594 139.72074219 3.84179688 139.28710938 C2.98779297 138.88427734 2.13378906 138.48144531 1.25390625 138.06640625 C0.46314697 137.69459229 -0.3276123 137.32277832 -1.14233398 136.93969727 C-3 136 -3 136 -4 135 C-4.09608663 133.35509451 -4.12187787 131.70604309 -4.12025452 130.05833435 C-4.12162918 128.98836212 -4.12300385 127.91838989 -4.12442017 126.81599426 C-4.12082489 125.63204575 -4.11722961 124.44809723 -4.11352539 123.22827148 C-4.11367142 121.989422 -4.11381744 120.75057251 -4.1139679 119.47418213 C-4.11338892 116.06730167 -4.10835959 112.66048116 -4.10139394 109.25361133 C-4.09515993 105.69683174 -4.09455656 102.14005142 -4.09336853 98.58326721 C-4.09025535 91.84363418 -4.08204215 85.10401729 -4.07201904 78.36439139 C-4.06085748 70.69341602 -4.05534735 63.02243989 -4.05032361 55.35145843 C-4.03985952 39.56762959 -4.02226035 23.78381687 -4 8 C-2.68 8 -1.36 8 0 8 C0 5.36 0 2.72 0 0 Z " fill="#00FDA8" transform="translate(328,689)"/>
<path d="M0 0 C0 169.29 0 338.58 0 513 C-4 511 -4 511 -5 510 C-5.09892061 507.34757889 -5.13176434 504.72118327 -5.12304783 502.06826687 C-5.12420167 501.22292618 -5.12535552 500.3775855 -5.12654433 499.50662842 C-5.12921864 496.63700377 -5.12468218 493.76743377 -5.12025452 490.89781189 C-5.12069005 488.83454852 -5.12156463 486.7712852 -5.12284368 484.70802218 C-5.12509211 479.00948763 -5.12106264 473.31097169 -5.11606562 467.61243951 C-5.11176626 461.47811212 -5.11320718 455.34378587 -5.1139679 449.2094574 C-5.11449346 438.57173821 -5.11137802 427.93402575 -5.10573006 417.29630852 C-5.09981955 406.1355785 -5.09596543 394.97485091 -5.09487724 383.81411934 C-5.0948085 383.12101469 -5.09473976 382.42791004 -5.09466894 381.71380222 C-5.09433062 378.19408872 -5.09402923 374.67437522 -5.09374207 371.15466172 C-5.09163985 346.20361071 -5.08489747 321.25256289 -5.07543945 296.30151367 C-5.06625986 272.0570477 -5.05917388 247.8125826 -5.05493164 223.56811523 C-5.05480011 222.8212188 -5.05466859 222.07432237 -5.05453308 221.30479272 C-5.05321459 213.80437238 -5.05193877 206.30395204 -5.05069422 198.80353169 C-5.04815778 183.52336373 -5.04533653 168.24319583 -5.04234314 152.96302795 C-5.04220585 152.26042078 -5.04206856 151.55781361 -5.04192711 150.83391531 C-5.03272143 103.88927552 -5.0168549 56.9446376 -5 10 C-6.27475728 11.1039466 -7.54787661 12.20978475 -8.8203125 13.31640625 C-9.52945801 13.93201416 -10.23860352 14.54762207 -10.96923828 15.18188477 C-12.68025984 16.71374068 -14.28817278 18.27994326 -15.875 19.9375 C-18 22 -18 22 -20 22 C-19.48265949 18.02673938 -18.58603045 16.0912223 -15.7265625 13.30078125 C-15.0665625 12.64916016 -14.4065625 11.99753906 -13.7265625 11.32617188 C-13.03304688 10.66166016 -12.33953125 9.99714844 -11.625 9.3125 C-10.93921875 8.63638672 -10.2534375 7.96027344 -9.546875 7.26367188 C-2.11696984 0 -2.11696984 0 0 0 Z " fill="#00CE7B" transform="translate(271,261)"/>
<path d="M0 0 C0.33 0 0.66 0 1 0 C1 69.96 1 139.92 1 212 C-8.48598981 197.77101528 -10.34782457 174.64769274 -13 158 C-13.16516113 156.97825684 -13.33032227 155.95651367 -13.50048828 154.90380859 C-18.4489763 122.62861321 -18.44628552 87.20201262 -13 55 C-12.79600586 53.77120117 -12.59201172 52.54240234 -12.38183594 51.27636719 C-9.41325361 33.84080725 -5.39086846 16.85307629 0 0 Z " fill="#00FEA9" transform="translate(166,420)"/>
<path d="M0 0 C0 152.79 0 305.58 0 463 C-1.65 463 -3.3 463 -5 463 C-5.495 238.765 -5.495 238.765 -6 10 C-9.96 12.97 -13.92 15.94 -18 19 C-18.66 19 -19.32 19 -20 19 C-20.3515625 16.81640625 -20.3515625 16.81640625 -20 14 C-18.15178437 12.05907453 -16.47820372 10.54597849 -14.375 8.9375 C-13.85292969 8.51662109 -13.33085937 8.09574219 -12.79296875 7.66210938 C-3.17078488 0 -3.17078488 0 0 0 Z " fill="#00CC79" transform="translate(297,241)"/>
<path d="M0 0 C0.66 0 1.32 0 2 0 C2 153.12 2 306.24 2 464 C-3 460 -3 460 -3.62740451 456.61779284 C-3.65411882 455.23878412 -3.65320794 453.85907825 -3.63085651 452.47999191 C-3.64204291 451.33341661 -3.64204291 451.33341661 -3.65345529 450.16367817 C-3.67245514 447.58704649 -3.65567579 445.01187356 -3.63923645 442.4352417 C-3.64554431 440.57562086 -3.65404481 438.71600637 -3.66455668 436.85640454 C-3.68713041 431.73458893 -3.67847206 426.61322208 -3.6648711 421.49139214 C-3.65563281 415.97262497 -3.67513503 410.45395222 -3.69119263 404.93521118 C-3.7150696 395.36974448 -3.72063207 385.80440667 -3.71384621 376.23891449 C-3.70406128 362.40875256 -3.72175596 348.57873391 -3.74621352 334.74859515 C-3.78514294 312.31155916 -3.80181121 289.8745629 -3.80444336 267.4375 C-3.80705356 245.63865063 -3.82013593 223.8398487 -3.84741211 202.04101562 C-3.84866675 201.03331704 -3.84866675 201.03331704 -3.84994673 200.00526091 C-3.85835794 193.25884917 -3.86698223 186.51243772 -3.87576263 179.76602645 C-3.94939241 123.17735903 -3.98706112 66.58871177 -4 10 C-4.67546875 10.74765625 -5.3509375 11.4953125 -6.046875 12.265625 C-6.94786268 13.26046556 -7.84890738 14.25525449 -8.75 15.25 C-9.63171875 16.22453125 -10.5134375 17.1990625 -11.421875 18.203125 C-13.56498967 20.5280797 -15.74365438 22.78582907 -18 25 C-17.58475002 20.03545576 -15.00692851 17.19370618 -11.8125 13.625 C-11.31435791 13.05499268 -10.81621582 12.48498535 -10.30297852 11.89770508 C-9.31827764 10.77116363 -8.33032877 9.64745146 -7.33886719 8.52685547 C-5.66243094 6.61503339 -4.0521406 4.65157774 -2.4375 2.6875 C-1.633125 1.800625 -0.82875 0.91375 0 0 Z " fill="#00CC79" transform="translate(244,286)"/>
<path d="M0 0 C1.67327281 0.64990794 3.33786634 1.32211069 5 2 C5.59243059 2.23400953 6.18486118 2.46801907 6.79524422 2.7091198 C18.46779564 7.5724214 18.46779564 7.5724214 20.8407402 12.88075638 C22.12461501 18.38528869 21.72133812 23.99531746 21.46484375 29.59765625 C21.43682945 31.40074296 21.41549509 33.20394468 21.40052795 35.00718689 C21.34352831 39.73022541 21.19649213 44.44622743 21.02996826 49.16650391 C20.87588542 53.99219538 20.80788353 58.81903671 20.73242188 63.64648438 C20.57204682 73.10073119 20.31642808 82.54977839 20 92 C18.68 92 17.36 92 16 92 C16 94.64 16 97.28 16 100 C9.4 100 2.8 100 -4 100 C-4 69.64 -4 39.28 -4 8 C-2.02 8.99 -2.02 8.99 0 10 C0 6.7 0 3.4 0 0 Z " fill="#00FEA9" transform="translate(662,221)"/>
<path d="M0 0 C3.02467811 1.37181197 5.28886209 2.96535689 7.75 5.1875 C8.67039062 6.01314453 8.67039062 6.01314453 9.609375 6.85546875 C10.39828125 7.56316406 11.1871875 8.27085937 12 9 C12.64306823 9.34951635 13.28613646 9.69903269 13.94869161 10.05914044 C16.68210273 11.80132639 18.20144363 13.27809762 20 16 C21.24280238 22.44232367 21.0629152 28.84565251 20.98895264 35.38592529 C20.99530592 37.40686954 21.00516125 39.4278053 21.01821828 41.44871736 C21.04388759 47.00289353 21.01959097 52.55590455 20.98716116 58.11000419 C20.960863 64.09912596 20.98064462 70.08811693 20.99468994 76.07725525 C21.01253528 86.45469484 21.00095513 96.83183405 20.9681015 107.20922089 C20.93364779 118.09428848 20.91402078 128.97920183 20.91477203 139.86432648 C20.91481791 140.87983701 20.91481791 140.87983701 20.91486471 141.91586291 C20.91502834 144.66396723 20.91529078 147.41207152 20.91568796 150.16017581 C20.91931215 175.93839507 20.87953258 201.71637918 20.8179693 227.49451684 C20.76344921 250.40799988 20.73852519 273.32131593 20.74121094 296.23486328 C20.74137258 297.70668708 20.74153402 299.17851088 20.74169526 300.65033469 C20.74177666 301.37796995 20.74185806 302.10560522 20.74194193 302.85529004 C20.7423451 306.51794091 20.74270743 310.18059177 20.74302292 313.84324265 C20.74308977 314.56579474 20.74315663 315.28834683 20.74322551 316.03279444 C20.74468524 335.17031304 20.72654236 354.30781068 20.70171666 373.44531178 C20.70083557 374.12579244 20.69995449 374.8062731 20.6990467 375.50737439 C20.69549371 378.24384751 20.69194015 380.98032062 20.68828288 383.71679359 C20.6756329 393.24631795 20.66960454 402.77582583 20.66783692 412.30535801 C20.6654514 424.58133366 20.64907667 436.85719382 20.61011109 449.13311616 C20.59159685 455.05546218 20.57947258 460.97763793 20.58448792 466.90001488 C20.58885088 472.31438199 20.57490141 477.72837172 20.54589382 483.14266005 C20.53860884 485.1081574 20.53814992 487.07369349 20.54496297 489.03919253 C20.55316252 491.69775513 20.53707945 494.35506267 20.51453781 497.01351547 C20.52275909 497.78815842 20.53098036 498.56280137 20.53945076 499.36091834 C20.45831551 504.54912778 20.45831551 504.54912778 17.96784139 506.99915528 C16.9937599 507.49457342 16.9937599 507.49457342 16 508 C16.00168123 506.98389983 16.00336247 505.96779966 16.00509465 504.92090857 C16.0785385 460.13604607 16.13957946 415.35118169 16.13742065 370.56625366 C16.13739149 369.88814074 16.13736232 369.21002781 16.13733227 368.51136601 C16.13662407 353.77384296 16.13369256 339.03632114 16.12847102 324.29879902 C16.12592388 317.07143252 16.123868 309.84406593 16.12207031 302.61669922 C16.12188306 301.89749263 16.12169581 301.17828604 16.12150288 300.43728532 C16.11566464 277.12923818 16.14226027 253.82136531 16.18569086 230.51336228 C16.23015323 206.55963368 16.24186358 182.6061067 16.2124138 158.65234951 C16.20826869 155.26839992 16.20449766 151.88445 16.20095444 148.50049973 C16.20024552 147.83449542 16.1995366 147.16849112 16.19880619 146.48230487 C16.1890069 136.42865751 16.20796408 126.37532094 16.24249649 116.32173538 C16.28156418 104.88134806 16.28724873 93.44157535 16.24884398 82.00117441 C16.23033187 76.1626941 16.2281055 70.32539273 16.26943016 64.48700333 C16.30691611 59.14049132 16.29826052 53.79610254 16.25305675 48.44966857 C16.24483126 46.51679359 16.25347347 44.58375693 16.28078665 42.65105744 C16.61353354 32.18954077 16.61353354 32.18954077 12.86678863 22.72016025 C10.37142833 20.17060334 7.89239527 18.07964152 5 16 C0.05715861 12.35301158 0.05715861 12.35301158 -0.48828125 8.984375 C-0.43027344 7.91703125 -0.37226562 6.8496875 -0.3125 5.75 C-0.26738281 4.67234375 -0.22226562 3.5946875 -0.17578125 2.484375 C-0.11777344 1.66453125 -0.05976562 0.8446875 0 0 Z " fill="#00CC79" transform="translate(713,257)"/>
<path d="M0 0 C0.66 0 1.32 0 2 0 C2 133.32 2 266.64 2 404 C-2.85857519 399.14142481 -3.12389239 398.23956245 -3.1386652 391.70998192 C-3.14150742 391.05427361 -3.14434964 390.39856531 -3.14727798 389.72298706 C-3.15566407 387.5044704 -3.15689624 385.28600569 -3.15821838 383.06747437 C-3.16278108 381.46944924 -3.16778066 379.87142532 -3.17318195 378.27340281 C-3.18680584 373.86551506 -3.19419367 369.45763506 -3.20060861 365.04973173 C-3.20859395 360.30261034 -3.22229811 355.55550515 -3.23532104 350.80839539 C-3.25711036 342.57817465 -3.27524584 334.3479523 -3.29092598 326.11771774 C-3.3136023 314.21806092 -3.34174819 302.31842204 -3.37124526 290.4187804 C-3.41894867 271.11415578 -3.46220538 251.80952383 -3.50268555 232.50488281 C-3.5420265 213.74804108 -3.58344935 194.99120586 -3.62768555 176.234375 C-3.63177196 174.50121224 -3.63177196 174.50121224 -3.63594092 172.73303609 C-3.64962016 166.9367417 -3.66334048 161.14044741 -3.67708123 155.34415317 C-3.79108918 107.22944901 -3.89788896 59.11473077 -4 11 C-5.27253328 12.73443113 -6.54295396 14.47041236 -7.8125 16.20703125 C-8.52019531 17.17358643 -9.22789062 18.1401416 -9.95703125 19.13598633 C-12.47643053 22.66790231 -14.7582053 26.28702752 -17 30 C-17.33 29.34 -17.66 28.68 -18 28 C-17.21484375 26.27929688 -17.21484375 26.27929688 -15.9375 24.21875 C-15.47335693 23.46319824 -15.00921387 22.70764648 -14.53100586 21.92919922 C-14.02577393 21.12756348 -13.52054199 20.32592773 -13 19.5 C-12.4954126 18.68934082 -11.9908252 17.87868164 -11.47094727 17.04345703 C-2.91140846 3.37825239 -2.91140846 3.37825239 0 0 Z " fill="#00CE7B" transform="translate(219,316)"/>
<path d="M0 0 C1.12760492 1.12760492 2.25449114 2.25593302 3.37890625 3.38671875 C4.5432398 4.54544106 5.7191523 5.69257173 6.90234375 6.83203125 C7.57394531 7.48558594 8.24554687 8.13914062 8.9375 8.8125 C9.56527344 9.41707031 10.19304688 10.02164062 10.83984375 10.64453125 C11.90912109 11.81048828 11.90912109 11.81048828 13 13 C13.4940563 13.45221159 13.98811259 13.90442317 14.49714029 14.37033814 C20.88272381 21.16486819 19.82878283 29.63117785 19.7484436 38.34223938 C19.75392707 40.12892913 19.76203319 41.91561242 19.77253091 43.70227975 C19.79368916 48.604147 19.77745795 53.50528404 19.75502992 58.40711939 C19.73733987 63.69614287 19.75423436 68.98507111 19.76675415 74.27409363 C19.78572888 84.63075282 19.77253285 94.98713329 19.74822827 105.34377179 C19.72099226 117.39812361 19.72426346 129.45240898 19.72849493 141.50678375 C19.73487416 163.00759085 19.71153979 184.5082654 19.67236328 206.0090332 C19.63433142 226.88700393 19.62019441 247.76481938 19.63134766 268.64282227 C19.6434522 291.36885969 19.64313124 314.09482883 19.62037599 336.82086056 C19.61796134 339.24199021 19.61554937 341.66311985 19.61314011 344.0842495 C19.61132949 345.87121989 19.61132949 345.87121989 19.6094823 347.6942907 C19.60171228 356.10376605 19.60251565 364.51321604 19.6063118 372.92269325 C19.61054766 383.16217082 19.60016828 393.40151214 19.57108469 403.64095125 C19.55655842 408.86865201 19.54847514 414.09615394 19.55757141 419.32387161 C19.56568605 424.10350983 19.55550388 428.88273639 19.53031926 433.66231193 C19.52443253 435.39696376 19.52537401 437.13165405 19.53360541 438.86629633 C19.54373777 441.21352997 19.52955798 443.55936417 19.50895119 445.90649891 C19.50721763 447.21333663 19.50548408 448.52017435 19.50369799 449.86661321 C19 453 19 453 16.96819055 454.94334382 C16.31868767 455.29204036 15.66918479 455.6407369 15 456 C15.00168123 455.10277385 15.00336247 454.2055477 15.00509465 453.28113288 C15.10346824 400.10475302 15.14977742 346.92854507 15.12847102 293.75207148 C15.12595781 287.36718513 15.12387961 280.9822987 15.12207031 274.59741211 C15.1217028 273.32629563 15.12133529 272.05517915 15.12095664 270.74554399 C15.1160433 250.16347276 15.1463714 229.58159665 15.18972255 208.99957695 C15.23342015 187.88065264 15.23924788 166.76196275 15.2099179 145.64301234 C15.19301304 132.6112161 15.20564948 119.58013586 15.25606923 106.54842333 C15.28781401 97.61217615 15.28277519 88.67642134 15.24884398 79.74018409 C15.2303512 74.58403873 15.22804492 69.42922763 15.26943016 64.27318573 C15.30699152 59.54888518 15.29817983 54.82698407 15.25305675 50.10277066 C15.24484947 48.39733195 15.25341133 46.69170916 15.28078665 44.98647042 C15.40801028 36.49250472 15.187239 30.35775199 9.17246819 23.71903706 C7.4589832 22.13440739 5.73531892 20.56068903 4 19 C0.15022113 14.69111639 -0.46772723 12.51170343 -0.25 6.6875 C-0.21390625 5.43324219 -0.1778125 4.17898438 -0.140625 2.88671875 C-0.07101562 1.45779297 -0.07101562 1.45779297 0 0 Z " fill="#00CC79" transform="translate(740,281)"/>
<path d="M0 0 C6.6 0 13.2 0 20 0 C20 116.82 20 233.64 20 354 C18.35 354.66 16.7 355.32 15 356 C15 241.49 15 126.98 15 9 C10.05 9 5.1 9 0 9 C0 6.03 0 3.06 0 0 Z " fill="#00CE7B" transform="translate(662,449)"/>
<path d="M0 0 C6.27 0 12.54 0 19 0 C19 141.24 19 282.48 19 428 C17.68 428.66 16.36 429.32 15 430 C15 291.07 15 152.14 15 9 C10.05 9 5.1 9 0 9 C0 6.03 0 3.06 0 0 Z " fill="#00CC79" transform="translate(688,357)"/>
<path d="M0 0 C6.6 0 13.2 0 20 0 C20 110.22 20 220.44 20 334 C18.35 333.67 16.7 333.34 15 333 C15 226.08 15 119.16 15 9 C10.05 9 5.1 9 0 9 C0 6.03 0 3.06 0 0 Z " fill="#00CE7B" transform="translate(431,522)"/>
<path d="M0 0 C0 132.99 0 265.98 0 403 C-1.32 403 -2.64 403 -4 403 C-4 272.98 -4 142.96 -4 9 C-8.62 11.97 -13.24 14.94 -18 18 C-18.33 18 -18.66 18 -19 18 C-19.55859375 14.87109375 -19.55859375 14.87109375 -19 11 C-16.35520028 8.45410018 -13.27050494 6.81298119 -10.0625 5.0625 C-9.21236328 4.56943359 -8.36222656 4.07636719 -7.48632812 3.56835938 C-1.27510619 0 -1.27510619 0 0 0 Z " fill="#00CC79" transform="translate(322,224)"/>
<path d="M0 0 C12.72979123 12.18907463 20.25730543 24.21866946 20.71047974 42.16542053 C20.82162665 47.71724818 20.77017395 53.26245126 20.68355489 58.81421816 C20.6306758 63.20871803 20.65999115 67.60283926 20.67849731 71.99751282 C20.7020555 80.57338081 20.65197825 89.14726206 20.57647015 97.7227673 C20.49155734 107.71642619 20.4833281 117.70972503 20.47843145 127.7036901 C20.46733698 145.52725447 20.39104486 163.34992475 20.27587891 181.1730957 C20.16424505 198.46318838 20.09361538 215.75276944 20.07080078 233.04321289 C20.06938427 234.11075249 20.06796775 235.17829209 20.06650831 236.27818138 C20.0636898 238.42882645 20.06088101 240.57947154 20.05808198 242.73011663 C20.05670059 243.79103339 20.0553192 244.85195015 20.05389595 245.94501591 C20.05253909 247.0032827 20.05118223 248.06154949 20.04978425 249.15188498 C20.02733847 265.6505146 19.97338454 282.14906075 19.91383926 298.64759301 C19.89597488 303.62889618 19.87960771 308.61019541 19.86661768 313.59151387 C19.83917139 324.05347076 19.80121756 334.51515238 19.72719027 344.97689647 C19.69675473 349.30151683 19.67246934 353.62592605 19.66523743 357.95065308 C19.65833979 361.90587022 19.63300256 365.8605162 19.5926175 369.81552928 C19.58117001 371.24897585 19.5764628 372.68249471 19.57903565 374.11598469 C19.58146877 376.05879171 19.55711267 378.00157779 19.53129768 379.94421482 C19.52522755 381.02490696 19.51915741 382.10559911 19.51290333 383.2190395 C18.88332996 386.63258464 17.635824 387.82690804 15 390 C15.00168123 389.25702227 15.00336247 388.51404453 15.00509465 387.74855232 C15.10355621 343.67384338 15.14975671 299.59934364 15.12847102 255.52452159 C15.12595793 250.22761087 15.12387969 244.93070007 15.12207031 239.63378906 C15.1217028 238.5793084 15.12133529 237.52482774 15.12095664 236.43839312 C15.1160488 219.38393941 15.14633563 202.32972172 15.18972255 185.27533031 C15.23348375 167.76449721 15.23920646 150.25394676 15.2099179 132.74308205 C15.19304758 121.9453582 15.2055364 111.14849964 15.25606923 100.3508774 C15.28791517 92.9376891 15.28267653 85.52509283 15.24884398 78.11191595 C15.2304256 73.84009359 15.22781226 69.56987849 15.26943016 65.29818344 C15.78638934 40.79520833 15.78638934 40.79520833 4 20 C0.19913935 15.61884741 -0.53476039 12.91008864 -0.25 7.1875 C-0.23195313 6.49462891 -0.21390625 5.80175781 -0.1953125 5.08789062 C-0.14851064 3.39132336 -0.07677624 1.69547524 0 0 Z " fill="#00CC79" transform="translate(766,312)"/>
<path d="M0 0 C6.6 0.33 13.2 0.66 20 1 C20 102.97 20 204.94 20 310 C18.35 310 16.7 310 15 310 C15 211 15 112 15 10 C11.04 10 7.08 10 3 10 C2.01 9.67 1.02 9.34 0 9 C0 6.03 0 3.06 0 0 Z " fill="#00CE7B" transform="translate(508,177)"/>
<path d="M0 0 C6.27 0 12.54 0 19 0 C19 22.77 19 45.54 19 69 C17.68 68.67 16.36 68.34 15 68 C15 71.3 15 74.6 15 78 C8.1640625 74.77734375 8.1640625 74.77734375 5 73 C4.18748779 72.58999756 3.37497559 72.17999512 2.5378418 71.75756836 C-4.46896187 67.70571065 -4.46896187 67.70571065 -5.88150024 63.16859436 C-6.157856 59.68825671 -6.12526981 56.33586546 -5.9765625 52.84765625 C-5.95533829 50.96475136 -5.95533829 50.96475136 -5.9336853 49.04380798 C-5.88731623 45.7249833 -5.7977486 42.4131911 -5.68664551 39.09631348 C-5.58384762 35.70479757 -5.53857256 32.31255069 -5.48828125 28.91992188 C-5.37822556 22.27802212 -5.21105772 15.6394165 -5 9 C-3.35 9 -1.7 9 0 9 C0 6.03 0 3.06 0 0 Z " fill="#00FEA9" transform="translate(303,742)"/>
<path d="M0 0 C1.83482889 0.43118479 3.66778967 0.87032053 5.5 1.3125 C7.03140625 1.67794922 7.03140625 1.67794922 8.59375 2.05078125 C12.46959672 3.13086239 16.23265502 4.58724563 20 6 C20 103.35 20 200.7 20 301 C18.35 301 16.7 301 15 301 C14.67 206.62 14.34 112.24 14 15 C9.38 13.35 4.76 11.7 0 10 C0 6.7 0 3.4 0 0 Z " fill="#00CE7B" transform="translate(585,189)"/>
<path d="M0 0 C2.7035732 2.40102339 4.13554446 4.89728629 5.7421875 8.12109375 C6.25136719 9.14009766 6.76054688 10.15910156 7.28515625 11.20898438 C7.80980469 12.27439453 8.33445312 13.33980469 8.875 14.4375 C9.39191406 15.46810547 9.90882813 16.49871094 10.44140625 17.56054688 C11.99761192 20.69451775 13.53505107 23.82197394 15 27 C15.40550551 27.69694819 15.81101103 28.39389639 16.22880459 29.11196423 C21.77808244 39.88897218 20.7092721 51.54744563 20.6628418 63.36474609 C20.67126328 65.83638784 20.68179206 68.30802317 20.69425964 70.77964783 C20.7184476 76.774645 20.71929225 82.76921665 20.70822146 88.76421784 C20.69963213 93.6413188 20.70051805 98.51833324 20.70801735 103.39543533 C20.70959968 104.44018292 20.70959968 104.44018292 20.71121398 105.50603653 C20.71338511 106.9213789 20.71557189 108.33672126 20.71777413 109.75206359 C20.73716573 122.99830468 20.72524334 136.24437754 20.70298818 149.49060483 C20.68474583 160.83044496 20.69563644 172.16995929 20.72729492 183.50976562 C20.76414125 196.70838349 20.78104956 209.90679807 20.76788265 223.10546744 C20.76654168 224.51595597 20.7652327 225.92644454 20.76395607 227.33693314 C20.7633254 228.03074321 20.76269474 228.72455329 20.76204496 229.43938791 C20.75903029 234.30365233 20.77022212 239.16776209 20.78720665 244.03199387 C20.80977493 250.59366393 20.8003952 257.15477418 20.77011299 263.71644783 C20.76380798 266.11650822 20.7675918 268.51662092 20.78252411 270.91664314 C20.856561 283.87219506 20.67633168 294.59296034 14 306 C13.505 304.515 13.505 304.515 13 303 C13.33 302.34 13.66 301.68 14 301 C14.1003639 299.61707645 14.13997973 298.22949481 14.14818764 296.84295845 C14.15572898 295.96652785 14.16327031 295.09009726 14.17104018 294.18710816 C14.17426641 293.21827537 14.17749265 292.24944258 14.18081665 291.25125122 C14.18802117 290.22643139 14.19522568 289.20161155 14.20264852 288.14573658 C14.22549038 284.68847748 14.2409795 281.23122564 14.25634766 277.77392578 C14.27079071 275.30364809 14.28554827 272.83337222 14.30059814 270.36309814 C14.43120536 247.74884343 14.49705356 225.13407719 14.54844093 202.5195179 C14.55544935 199.48876034 14.56257634 196.45800309 14.56982422 193.42724609 C14.57161951 192.67400715 14.5734148 191.92076821 14.5752645 191.14470385 C14.60523871 178.98165179 14.66991981 166.81903595 14.74851067 154.65621127 C14.82865165 142.14908327 14.87417297 129.64217968 14.88746679 117.13479984 C14.8958347 110.12060221 14.91922419 103.10717459 14.98213577 96.09323502 C15.04142933 89.47909922 15.05394464 82.86598715 15.03626251 76.25153351 C15.03713436 73.83781406 15.0531416 71.42403937 15.08630753 69.01054764 C15.32624981 50.57617632 11.40099745 37.54432469 1.9375 21.8125 C-1.52560061 15.25395673 -0.37506344 7.18454864 0 0 Z " fill="#00CC79" transform="translate(792,352)"/>
<path d="M0 0 C1.83401808 0.2873295 3.66718144 0.58011583 5.5 0.875 C7.03140625 1.11863281 7.03140625 1.11863281 8.59375 1.3671875 C12.43016057 2.07991515 16.21445141 3.05361285 20 4 C20 120.82 20 237.64 20 358 C18.68 358 17.36 358 16 358 C16 244.15 16 130.3 16 13 C13.36 12.67 10.72 12.34 8 12 C5.22348989 11.1730456 2.68716166 10.10365568 0 9 C0 6.03 0 3.06 0 0 Z " fill="#00CC79" transform="translate(559,183)"/>
<path d="M0 0 C2.79224194 0.3079239 5.58371427 0.62112437 8.375 0.9375 C9.1690625 1.02451172 9.963125 1.11152344 10.78125 1.20117188 C16.7734375 1.88671875 16.7734375 1.88671875 19 3 C19 114.87 19 226.74 19 342 C17.68 342 16.36 342 15 342 C14.67 233.1 14.34 124.2 14 12 C9.38 11.34 4.76 10.68 0 10 C0 6.7 0 3.4 0 0 Z " fill="#00CC79" transform="translate(534,179)"/>
<path d="M0 0 C0 88.77 0 177.54 0 269 C-1.65 269 -3.3 269 -5 269 C-5.33 183.53 -5.66 98.06 -6 10 C-10.62 11.65 -15.24 13.3 -20 15 C-20 12.69 -20 10.38 -20 8 C-17.93824636 7.040062 -15.87556531 6.08211576 -13.8125 5.125 C-12.66394531 4.59132812 -11.51539063 4.05765625 -10.33203125 3.5078125 C-2.58031088 0 -2.58031088 0 0 0 Z " fill="#00CE7B" transform="translate(374,199)"/>
<path d="M0 0 C0 108.57 0 217.14 0 329 C-1.32 329 -2.64 329 -4 329 C-4 223.4 -4 117.8 -4 9 C-8.29 11.31 -12.58 13.62 -17 16 C-17.99 16 -18.98 16 -20 16 C-20 14.02 -20 12.04 -20 10 C-16.85591306 8.33002304 -13.70944906 6.66457635 -10.5625 5 C-9.66466797 4.52304688 -8.76683594 4.04609375 -7.84179688 3.5546875 C-6.98779297 3.10351562 -6.13378906 2.65234375 -5.25390625 2.1875 C-4.46314697 1.76855469 -3.6723877 1.34960938 -2.85766602 0.91796875 C-1 0 -1 0 0 0 Z " fill="#00CC79" transform="translate(348,210)"/>
<path d="M0 0 C6.6 0 13.2 0 20 0 C20 102.63 20 205.26 20 311 C18.68 311 17.36 311 16 311 C16 211.01 16 111.02 16 8 C10.72 8 5.44 8 0 8 C0 5.36 0 2.72 0 0 Z " fill="#00CC79" transform="translate(405,540)"/>
<path d="M0 0 C6.27 0 12.54 0 19 0 C19 99.66 19 199.32 19 302 C17.68 302 16.36 302 15 302 C15 204.98 15 107.96 15 8 C10.05 8 5.1 8 0 8 C0 5.36 0 2.72 0 0 Z " fill="#00CC79" transform="translate(457,556)"/>
<path d="M0 0 C6.6 0 13.2 0 20 0 C20 76.23 20 152.46 20 231 C18.35 231 16.7 231 15 231 C15 157.74 15 84.48 15 9 C10.05 9 5.1 9 0 9 C0 6.03 0 3.06 0 0 Z " fill="#00CE7B" transform="translate(508,626)"/>
<path d="M0 0 C0.33 0 0.66 0 1 0 C1 107.58 1 215.16 1 326 C-3.5000262 320.37496725 -3.5000262 320.37496725 -3.51898193 315.50045967 C-3.53289632 314.40103511 -3.5468107 313.30161055 -3.56114674 312.16887009 C-3.5561148 310.96645137 -3.55108286 309.76403265 -3.54589844 308.525177 C-3.55622195 307.2436084 -3.56654547 305.96203979 -3.57718182 304.64163578 C-3.60521963 301.08626883 -3.60838167 297.53124787 -3.60744166 293.97578645 C-3.61072753 290.1405919 -3.63692124 286.30554444 -3.66017151 282.47042847 C-3.70197336 274.95762421 -3.72219605 267.44490938 -3.73471135 259.93200506 C-3.74526884 253.82564548 -3.76358044 247.71935501 -3.78744507 241.61303329 C-3.79083336 240.74426838 -3.79422166 239.87550346 -3.79771262 238.98041233 C-3.80462884 237.21556205 -3.81156269 235.45071183 -3.81851399 233.68586169 C-3.8827997 217.13079061 -3.92261861 200.57572932 -3.95411789 184.02056788 C-3.98171584 169.81650342 -4.0302999 155.61263713 -4.09423828 141.40869141 C-4.16846811 124.91636073 -4.22962793 108.42406666 -4.27000237 91.93161571 C-4.27434479 90.17260984 -4.27870429 88.41360402 -4.28308105 86.65459824 C-4.28522806 85.78912754 -4.28737507 84.92365684 -4.28958714 84.03195975 C-4.30561667 77.93419809 -4.33099265 71.83651631 -4.35998535 65.73880386 C-4.39507606 58.30573243 -4.41582463 50.87278582 -4.41822809 43.43962921 C-4.41981503 39.64730028 -4.42781657 35.85527669 -4.4532795 32.06302643 C-4.48066871 27.95143679 -4.47687234 23.8404652 -4.4699707 19.72879028 C-4.48278454 18.53083301 -4.49559837 17.33287573 -4.50880051 16.09861672 C-4.46733032 9.50501955 -3.91879841 5.37808406 0 0 Z " fill="#00CC79" transform="translate(195,355)"/>
<path d="M0 0 C6.6 0 13.2 0 20 0 C20 89.1 20 178.2 20 270 C18.68 270.66 17.36 271.32 16 272 C16 185.21 16 98.42 16 9 C10.72 9 5.44 9 0 9 C0 6.03 0 3.06 0 0 Z " fill="#00CC79" transform="translate(636,548)"/>
<path d="M0 0 C0 72.6 0 145.2 0 220 C-1.65 220 -3.3 220 -5 220 C-5 150.37 -5 80.74 -5 9 C-8.63 9.66 -12.26 10.32 -16 11 C-17.32 11 -18.64 11 -20 11 C-20 8.36 -20 5.72 -20 3 C-13.23908163 0.93033111 -7.13261907 0 0 0 Z " fill="#00CE7B" transform="translate(451,180)"/>
<path d="M0 0 C6.6 0 13.2 0 20 0 C20 88.77 20 177.54 20 269 C18.68 269 17.36 269 16 269 C16 183.2 16 97.4 16 9 C10.72 9 5.44 9 0 9 C0 6.03 0 3.06 0 0 Z " fill="#00CC79" transform="translate(482,589)"/>
<path d="M0 0 C6.6 0 13.2 0 20 0 C20 89.76 20 179.52 20 272 C18.68 272 17.36 272 16 272 C16 184.88 16 97.76 16 8 C10.72 8 5.44 8 0 8 C0 5.36 0 2.72 0 0 Z " fill="#00CC79" transform="translate(482,177)"/>
<path d="M0 0 C6.27 0 12.54 0 19 0 C19 84.48 19 168.96 19 256 C17.68 255.67 16.36 255.34 15 255 C15 173.82 15 92.64 15 9 C10.05 9 5.1 9 0 9 C0 6.03 0 3.06 0 0 Z " fill="#00CC79" transform="translate(380,589)"/>
<path d="M0 0 C6.6 0 13.2 0 20 0 C20 65.67 20 131.34 20 199 C18.35 198.67 16.7 198.34 15 198 C15 135.63 15 73.26 15 9 C10.05 9 5.1 9 0 9 C0 6.03 0 3.06 0 0 Z " fill="#00CE7B" transform="translate(354,637)"/>
<path d="M0 0 C1.12019531 0.42152344 2.24039063 0.84304687 3.39453125 1.27734375 C4.86717658 1.83075824 6.33983343 2.38414205 7.8125 2.9375 C8.55048828 3.21529297 9.28847656 3.49308594 10.04882812 3.77929688 C11.11713867 4.18051758 11.11713867 4.18051758 12.20703125 4.58984375 C12.8616333 4.83597412 13.51623535 5.08210449 14.19067383 5.33569336 C15.78311815 5.92037033 17.39066676 6.46355559 19 7 C19 84.88 19 162.76 19 243 C17.68 243 16.36 243 15 243 C14.67 168.42 14.34 93.84 14 17 C9.38 15.02 4.76 13.04 0 11 C0 7.37 0 3.74 0 0 Z " fill="#00CC79" transform="translate(611,197)"/>
<path d="M0 0 C0 78.87 0 157.74 0 239 C-1.32 239 -2.64 239 -4 239 C-4 163.1 -4 87.2 -4 9 C-5.98 9.33 -7.96 9.66 -10 10 C-11.62394748 10.0620775 -13.25005297 10.08712041 -14.875 10.0625 C-15.65617187 10.05347656 -16.43734375 10.04445312 -17.2421875 10.03515625 C-17.82226562 10.02355469 -18.40234375 10.01195312 -19 10 C-19 7.36 -19 4.72 -19 2 C-15.47772038 0.9676077 -12.02894966 0.69731809 -8.375 0.4375 C-7.22773438 0.35371094 -6.08046875 0.26992187 -4.8984375 0.18359375 C-3.26774665 0.08030201 -1.63395895 0 0 0 Z " fill="#00CC79" transform="translate(476,177)"/>
<path d="M0 0 C6.6 0 13.2 0 20 0 C20 61.38 20 122.76 20 186 C18.35 186.33 16.7 186.66 15 187 C15 128.26 15 69.52 15 9 C10.05 9 5.1 9 0 9 C0 6.03 0 3.06 0 0 Z " fill="#00D07D" transform="translate(559,662)"/>
<path d="M0 0 C6.6 0 13.2 0 20 0 C20 59.73 20 119.46 20 181 C18.35 181.33 16.7 181.66 15 182 C15 124.91 15 67.82 15 9 C10.05 9 5.1 9 0 9 C0 6.03 0 3.06 0 0 Z " fill="#00CE7B" transform="translate(585,660)"/>
<path d="M0 0 C0.33 0 0.66 0 1 0 C1 70.29 1 140.58 1 213 C-1.60885431 211.69557284 -1.68207331 210.82957951 -2.60073853 208.09436035 C-4.85127491 200.06780982 -4.41849419 191.75303181 -4.38818359 183.49023438 C-4.39225399 181.62323195 -4.3975985 179.75623194 -4.40411377 177.88923645 C-4.41773742 172.84173689 -4.41250921 167.79442223 -4.40297651 162.74691963 C-4.3953542 157.45183965 -4.40243265 152.15677497 -4.40713501 146.86169434 C-4.41258508 137.97140679 -4.40542059 129.08119413 -4.39111328 120.19091797 C-4.37478824 109.9286866 -4.38007728 99.66663407 -4.3965925 89.40440702 C-4.41022869 80.57608118 -4.4121166 71.74780901 -4.40427649 62.91947603 C-4.39961171 57.65431063 -4.39894219 52.38922915 -4.40888596 47.12406921 C-4.41758441 42.17290101 -4.41148124 37.22196226 -4.39420319 32.27081871 C-4.39025369 30.45927498 -4.39134588 28.64771177 -4.39799118 26.83617592 C-4.45857328 8.636203 -4.45857328 8.636203 -1 1 C-0.67 0.67 -0.34 0.34 0 0 Z " fill="#00CC79" transform="translate(171,411)"/>
<path d="M0 0 C0 72.6 0 145.2 0 220 C-1.32 220 -2.64 220 -4 220 C-4 150.37 -4 80.74 -4 9 C-8.95 10.32 -13.9 11.64 -19 13 C-19 10.36 -19 7.72 -19 5 C-16.58570231 4.15919981 -14.16896007 3.32718598 -11.75 2.5 C-10.72712891 2.14228516 -10.72712891 2.14228516 -9.68359375 1.77734375 C-6.23586997 0.60578713 -3.68297096 0 0 0 Z " fill="#00CC79" transform="translate(399,191)"/>
<path d="M0 0 C0 71.61 0 143.22 0 217 C-1.32 217 -2.64 217 -4 217 C-4 148.36 -4 79.72 -4 9 C-9.445 10.485 -9.445 10.485 -15 12 C-16.65 12 -18.3 12 -20 12 C-20 9.69 -20 7.38 -20 5 C-5.9 0 -5.9 0 0 0 Z " fill="#00CC79" transform="translate(425,184)"/>
<path d="M0 0 C29.02164187 43.5324628 20.68830518 126.80888194 11.25 175.1875 C8.65510028 188.05737224 5.16563131 200.55513001 1 213 C0.67 213 0.34 213 0 213 C-0.41089557 206.39765526 1.15417199 200.56463037 2.75 194.1875 C5.94275373 180.87839111 8.20510022 167.56271147 10 154 C10.11859375 153.16388184 10.2371875 152.32776367 10.359375 151.46630859 C15.77848047 112.47616734 12.51005589 70.30413016 2.015625 32.44921875 C-0.90973544 21.81028997 -0.27349121 10.94385612 0 0 Z " fill="#00CD7A" transform="translate(818,411)"/>
<path d="M0 0 C6.27 0 12.54 0 19 0 C19 66 19 132 19 200 C17.68 200 16.36 200 15 200 C15 136.97 15 73.94 15 9 C10.05 9 5.1 9 0 9 C0 6.03 0 3.06 0 0 Z " fill="#00CC79" transform="translate(534,654)"/>
<path d="M0 0 C6.27 0 12.54 0 19 0 C19 66.99 19 133.98 19 203 C17.68 203.33 16.36 203.66 15 204 C15 139.32 15 74.64 15 8 C10.05 8 5.1 8 0 8 C0 5.36 0 2.72 0 0 Z " fill="#00CC79" transform="translate(611,628)"/>
<path d="M0 0 C5 1 5 1 20 9 C20 62.13 20 115.26 20 170 C18.68 170 17.36 170 16 170 C16 119.84 16 69.68 16 18 C13.525 17.01 13.525 17.01 11 16 C9.04906292 14.98372238 7.11153494 13.94133262 5.1875 12.875 C3.72376953 12.06675781 3.72376953 12.06675781 2.23046875 11.2421875 C1.49441406 10.83226562 0.75835938 10.42234375 0 10 C0 6.7 0 3.4 0 0 Z " fill="#00CC79" transform="translate(636,208)"/>
<path d="M0 0 C6.6 0 13.2 0 20 0 C20 44.88 20 89.76 20 136 C18.68 135.67 17.36 135.34 16 135 C16 93.09 16 51.18 16 8 C10.72 8 5.44 8 0 8 C0 5.36 0 2.72 0 0 Z " fill="#00CC79" transform="translate(328,689)"/>
<path d="M0 0 C1.67327281 0.64990794 3.33786634 1.32211069 5 2 C5.59243059 2.23400953 6.18486118 2.46801907 6.79524422 2.7091198 C18.46779564 7.5724214 18.46779564 7.5724214 20.8407402 12.88075638 C22.12461501 18.38528869 21.72133812 23.99531746 21.46484375 29.59765625 C21.43682945 31.40074296 21.41549509 33.20394468 21.40052795 35.00718689 C21.34352831 39.73022541 21.19649213 44.44622743 21.02996826 49.16650391 C20.87588542 53.99219538 20.80788353 58.81903671 20.73242188 63.64648438 C20.57204682 73.10073119 20.31642808 82.54977839 20 92 C18.35 92 16.7 92 15 92 C15.01856049 91.11796402 15.03712097 90.23592804 15.0562439 89.3271637 C15.21923343 80.98560886 15.31422009 72.64657769 15.33421898 64.30340672 C15.34686215 60.01431059 15.38511575 55.72873023 15.48339844 51.44067383 C15.57742292 47.29621183 15.60221106 43.15641367 15.58046341 39.01099968 C15.58408361 37.43564173 15.61201324 35.86013364 15.66541672 34.28567696 C15.82839649 29.19041664 15.73886043 24.83186779 14 20 C10.88207882 16.77427725 7.08693664 14.90287894 3.0921936 12.97618103 C0 11 0 11 -0.89614868 7.90675354 C-0.87646143 5.14268294 -0.63289753 2.68730302 0 0 Z " fill="#00CD7A" transform="translate(662,221)"/>
<path d="M0 0 C6.27 0 12.54 0 19 0 C19 22.77 19 45.54 19 69 C17.68 68.67 16.36 68.34 15 68 C15 48.53 15 29.06 15 9 C10.05 9 5.1 9 0 9 C0 6.03 0 3.06 0 0 Z " fill="#00CC79" transform="translate(303,742)"/>
</svg>
